<svg width="198" height="199" viewBox="0 0 198 199" fill="none" xmlns="http://www.w3.org/2000/svg">
<g clip-path="url(#clip0_40_894)">
<path d="M134.561 10.2347L134.564 10.2368C139.218 13.2144 143.796 15.6201 148.459 17.5417C157.642 21.2357 167.353 23.4338 177.226 24.0533L177.228 24.0534C182.247 24.4137 187.401 24.6249 192.765 24.6249H193.015V24.8749V74.6249C193.015 84.0988 191.812 93.0767 189.405 101.632C189.405 101.632 189.405 101.632 189.405 101.632L189.164 101.565C186.858 109.975 183.581 118.085 179.4 125.731L134.561 10.2347ZM134.561 10.2347C131.797 8.52806 129.029 6.95614 126.333 5.66997L134.561 10.2347ZM51.3851 17.5418C46.7348 19.451 42.0089 20.865 37.2806 21.932L126.225 5.89527C123.465 4.55202 120.706 3.48239 117.884 2.6242L117.96 2.38582C117.959 2.38569 117.959 2.38556 117.958 2.38544C115.132 1.49241 112.234 0.848674 109.296 0.461538C106.311 -0.0381713 103.106 -0.250043 99.8555 -0.250109C93.697 -0.326277 87.5642 0.558574 81.6757 2.37284L81.6737 2.37349C76.2056 4.10963 70.6659 6.74411 65.2034 10.3127C60.8395 13.163 56.2123 15.5838 51.3861 17.5414L51.3851 17.5418ZM152.599 32.6515L152.6 32.6518C161.54 35.293 170.76 36.8661 180.066 37.3388V74.6871V74.6884C180.109 82.6895 179.02 90.6561 176.833 98.3495L176.833 98.3509C174.745 105.871 171.808 113.127 168.081 119.977C164.291 126.909 159.823 133.445 154.744 139.487C149.591 145.585 144.08 151.261 138.147 156.652L138.315 156.837L138.147 156.652C132.229 162.035 125.98 167.038 119.436 171.632L119.436 171.632C113.106 176.092 106.594 180.284 99.9156 184.196C93.3923 180.388 86.8572 176.225 80.3344 171.632C73.8331 167.024 67.6166 162.055 61.6846 156.652L61.6844 156.652C55.7523 151.261 50.2533 145.585 45.1003 139.487C40.0216 133.445 35.5539 126.909 31.7633 119.976C28.0188 113.118 25.0378 105.865 22.8745 98.3496C20.7525 90.7734 19.6912 82.911 19.6912 74.6871V37.3985C29.2511 36.8139 38.3739 35.2485 47.0952 32.7017L47.0968 32.7013C56.0963 30.0064 64.6653 26.0299 72.5428 20.8929L72.5464 20.8905C76.5558 18.1761 80.9458 16.0784 85.5714 14.6667C90.2251 13.2734 95.0586 12.5812 99.9142 12.6128L99.9179 12.6128C104.737 12.5728 109.534 13.2651 114.147 14.6662C118.768 16.1259 123.165 18.2211 127.214 20.8921L127.215 20.8931C135.079 26.0022 143.626 29.9613 152.599 32.6515Z" fill="#00324F" stroke="#00324F" stroke-width="0.5"/>
<path d="M146.237 58.5503L146.23 58.4467L146.151 58.3789L140.706 53.6775L140.626 53.6085L140.521 53.6176L135.497 54.0529L135.394 54.0619L135.328 54.1409L81.5825 117.92L63.3919 91.8198L63.3321 91.734L63.2289 91.7163L58.2789 90.8706L58.1759 90.853L58.0909 90.914L52.3613 95.0308L52.2781 95.0906L52.2608 95.1915L51.4069 100.167L51.3896 100.268L51.4482 100.352L75.0721 134.256L75.1052 134.304L75.1558 134.332L77.8411 135.824L77.8907 135.852L77.9472 135.855L83.6026 136.204L83.6629 136.207L83.7183 136.183L86.614 134.915L86.6674 134.891L86.705 134.847L146.538 63.7663L146.603 63.6887L146.596 63.5875L146.237 58.5503Z" fill="#00324F" stroke="#00324F" stroke-width="0.5"/>
</g>
<defs>
<clipPath id="clip0_40_894">
<rect width="198" height="199" fill="white"/>
</clipPath>
</defs>
</svg>
