<svg width="1920" height="824" viewBox="0 0 1920 824" fill="none" xmlns="http://www.w3.org/2000/svg">
<rect width="1920" height="824" fill="#00324F"/>
<rect width="151" height="50" transform="translate(884 131)" fill="#5D5FEF"/>
<path d="M898.984 168.48C896.68 168.48 894.707 167.979 893.064 166.976C891.421 165.963 890.157 164.555 889.272 162.752C888.397 160.949 887.96 158.859 887.96 156.48C887.96 154.101 888.397 152.011 889.272 150.208C890.157 148.405 891.421 147.003 893.064 146C894.707 144.987 896.68 144.48 898.984 144.48C901.288 144.48 903.261 144.987 904.904 146C906.557 147.003 907.821 148.405 908.696 150.208C909.581 152.011 910.024 154.101 910.024 156.48C910.024 158.859 909.581 160.949 908.696 162.752C907.821 164.555 906.557 165.963 904.904 166.976C903.261 167.979 901.288 168.48 898.984 168.48ZM898.984 164.848C900.531 164.859 901.816 164.517 902.84 163.824C903.875 163.131 904.648 162.155 905.16 160.896C905.683 159.637 905.944 158.165 905.944 156.48C905.944 154.795 905.683 153.333 905.16 152.096C904.648 150.848 903.875 149.877 902.84 149.184C901.816 148.491 900.531 148.133 898.984 148.112C897.437 148.101 896.152 148.443 895.128 149.136C894.104 149.829 893.331 150.805 892.808 152.064C892.296 153.323 892.04 154.795 892.04 156.48C892.04 158.165 892.296 159.632 892.808 160.88C893.32 162.117 894.088 163.083 895.112 163.776C896.147 164.469 897.437 164.827 898.984 164.848ZM917.881 168L911.609 150.72H915.465L919.817 163.248L924.153 150.72H928.025L921.753 168H917.881ZM938.127 168.48C936.378 168.48 934.842 168.101 933.519 167.344C932.197 166.587 931.162 165.536 930.415 164.192C929.679 162.848 929.311 161.301 929.311 159.552C929.311 157.664 929.674 156.027 930.399 154.64C931.125 153.243 932.133 152.16 933.423 151.392C934.714 150.624 936.207 150.24 937.903 150.24C939.695 150.24 941.215 150.661 942.463 151.504C943.722 152.336 944.655 153.515 945.263 155.04C945.871 156.565 946.101 158.363 945.951 160.432H942.127V159.024C942.117 157.147 941.786 155.776 941.135 154.912C940.485 154.048 939.461 153.616 938.063 153.616C936.485 153.616 935.311 154.107 934.543 155.088C933.775 156.059 933.391 157.483 933.391 159.36C933.391 161.109 933.775 162.464 934.543 163.424C935.311 164.384 936.431 164.864 937.903 164.864C938.853 164.864 939.669 164.656 940.351 164.24C941.045 163.813 941.578 163.2 941.951 162.4L945.759 163.552C945.098 165.109 944.074 166.32 942.687 167.184C941.311 168.048 939.791 168.48 938.127 168.48ZM932.175 160.432V157.52H944.063V160.432H932.175ZM949.521 168V150.72H952.929V154.928L952.513 154.384C952.727 153.808 953.009 153.285 953.361 152.816C953.724 152.336 954.156 151.941 954.657 151.632C955.084 151.344 955.553 151.12 956.065 150.96C956.588 150.789 957.121 150.688 957.665 150.656C958.209 150.613 958.737 150.635 959.249 150.72V154.32C958.737 154.171 958.145 154.123 957.473 154.176C956.812 154.229 956.215 154.416 955.681 154.736C955.148 155.024 954.711 155.392 954.369 155.84C954.039 156.288 953.793 156.8 953.633 157.376C953.473 157.941 953.393 158.555 953.393 159.216V168H949.521ZM966.975 168L960.703 150.72H964.559L968.911 163.248L973.247 150.72H977.119L970.847 168H966.975ZM980.31 148.096V144.56H984.166V148.096H980.31ZM980.31 168V150.72H984.166V168H980.31ZM996.815 168.48C995.065 168.48 993.529 168.101 992.207 167.344C990.884 166.587 989.849 165.536 989.103 164.192C988.367 162.848 987.999 161.301 987.999 159.552C987.999 157.664 988.361 156.027 989.087 154.64C989.812 153.243 990.82 152.16 992.111 151.392C993.401 150.624 994.895 150.24 996.591 150.24C998.383 150.24 999.903 150.661 1001.15 151.504C1002.41 152.336 1003.34 153.515 1003.95 155.04C1004.56 156.565 1004.79 158.363 1004.64 160.432H1000.81V159.024C1000.8 157.147 1000.47 155.776 999.823 154.912C999.172 154.048 998.148 153.616 996.751 153.616C995.172 153.616 993.999 154.107 993.231 155.088C992.463 156.059 992.079 157.483 992.079 159.36C992.079 161.109 992.463 162.464 993.231 163.424C993.999 164.384 995.119 164.864 996.591 164.864C997.54 164.864 998.356 164.656 999.039 164.24C999.732 163.813 1000.27 163.2 1000.64 162.4L1004.45 163.552C1003.79 165.109 1002.76 166.32 1001.37 167.184C999.999 168.048 998.479 168.48 996.815 168.48ZM990.863 160.432V157.52H1002.75V160.432H990.863ZM1011.26 168L1005.98 150.688L1009.76 150.72L1013.14 161.808L1016.56 150.72H1019.81L1023.22 161.808L1026.61 150.72H1030.38L1025.1 168H1022.1L1018.18 156.112L1014.27 168H1011.26Z" fill="white"/>
<path d="M572.276 543L565.54 519.96H569.588L574.18 536.6L578.756 519.992L582.804 519.96L587.396 536.6L591.972 519.96H596.02L589.3 543H585.492L580.772 526.616L576.084 543H572.276ZM604.58 543.48C602.831 543.48 601.295 543.101 599.972 542.344C598.65 541.587 597.615 540.536 596.868 539.192C596.132 537.848 595.764 536.301 595.764 534.552C595.764 532.664 596.127 531.027 596.852 529.64C597.578 528.243 598.586 527.16 599.876 526.392C601.167 525.624 602.66 525.24 604.356 525.24C606.148 525.24 607.668 525.661 608.916 526.504C610.175 527.336 611.108 528.515 611.716 530.04C612.324 531.565 612.554 533.363 612.404 535.432H608.58V534.024C608.57 532.147 608.239 530.776 607.588 529.912C606.938 529.048 605.914 528.616 604.516 528.616C602.938 528.616 601.764 529.107 600.996 530.088C600.228 531.059 599.844 532.483 599.844 534.36C599.844 536.109 600.228 537.464 600.996 538.424C601.764 539.384 602.884 539.864 604.356 539.864C605.306 539.864 606.122 539.656 606.804 539.24C607.498 538.813 608.031 538.2 608.404 537.4L612.212 538.552C611.551 540.109 610.527 541.32 609.14 542.184C607.764 543.048 606.244 543.48 604.58 543.48ZM598.628 535.432V532.52H610.516V535.432H598.628ZM634.333 543V534.68C634.333 534.136 634.295 533.533 634.221 532.872C634.146 532.211 633.97 531.576 633.693 530.968C633.426 530.349 633.021 529.843 632.477 529.448C631.943 529.053 631.218 528.856 630.301 528.856C629.81 528.856 629.325 528.936 628.845 529.096C628.365 529.256 627.927 529.533 627.533 529.928C627.149 530.312 626.839 530.845 626.605 531.528C626.37 532.2 626.253 533.064 626.253 534.12L623.965 533.144C623.965 531.672 624.247 530.339 624.813 529.144C625.389 527.949 626.231 527 627.341 526.296C628.45 525.581 629.815 525.224 631.437 525.224C632.717 525.224 633.773 525.437 634.605 525.864C635.437 526.291 636.098 526.835 636.589 527.496C637.079 528.157 637.442 528.861 637.677 529.608C637.911 530.355 638.061 531.064 638.125 531.736C638.199 532.397 638.237 532.936 638.237 533.352V543H634.333ZM622.349 543V519.96H625.789V532.088H626.253V543H622.349ZM650.268 543.48C648.519 543.48 646.983 543.101 645.66 542.344C644.337 541.587 643.303 540.536 642.556 539.192C641.82 537.848 641.452 536.301 641.452 534.552C641.452 532.664 641.815 531.027 642.54 529.64C643.265 528.243 644.273 527.16 645.564 526.392C646.855 525.624 648.348 525.24 650.044 525.24C651.836 525.24 653.356 525.661 654.604 526.504C655.863 527.336 656.796 528.515 657.404 530.04C658.012 531.565 658.241 533.363 658.092 535.432H654.268V534.024C654.257 532.147 653.927 530.776 653.276 529.912C652.625 529.048 651.601 528.616 650.204 528.616C648.625 528.616 647.452 529.107 646.684 530.088C645.916 531.059 645.532 532.483 645.532 534.36C645.532 536.109 645.916 537.464 646.684 538.424C647.452 539.384 648.572 539.864 650.044 539.864C650.993 539.864 651.809 539.656 652.492 539.24C653.185 538.813 653.719 538.2 654.092 537.4L657.9 538.552C657.239 540.109 656.215 541.32 654.828 542.184C653.452 543.048 651.932 543.48 650.268 543.48ZM644.316 535.432V532.52H656.204V535.432H644.316ZM661.982 543V519.48H665.838V543H661.982ZM678.935 543.48C677.249 543.48 675.836 543.08 674.695 542.28C673.553 541.48 672.695 540.392 672.119 539.016C671.543 537.629 671.255 536.077 671.255 534.36C671.255 532.621 671.543 531.064 672.119 529.688C672.695 528.312 673.537 527.229 674.647 526.44C675.767 525.64 677.148 525.24 678.791 525.24C680.423 525.24 681.836 525.64 683.031 526.44C684.236 527.229 685.169 528.312 685.831 529.688C686.492 531.053 686.823 532.611 686.823 534.36C686.823 536.088 686.497 537.64 685.847 539.016C685.196 540.392 684.279 541.48 683.095 542.28C681.911 543.08 680.524 543.48 678.935 543.48ZM670.599 550.68V525.72H674.007V537.848H674.487V550.68H670.599ZM678.343 540.024C679.345 540.024 680.172 539.773 680.823 539.272C681.473 538.771 681.953 538.093 682.263 537.24C682.583 536.376 682.743 535.416 682.743 534.36C682.743 533.315 682.583 532.365 682.263 531.512C681.943 530.648 681.447 529.965 680.775 529.464C680.103 528.952 679.249 528.696 678.215 528.696C677.233 528.696 676.433 528.936 675.815 529.416C675.196 529.885 674.737 530.547 674.439 531.4C674.151 532.243 674.007 533.229 674.007 534.36C674.007 535.48 674.151 536.467 674.439 537.32C674.737 538.173 675.201 538.84 675.831 539.32C676.471 539.789 677.308 540.024 678.343 540.024ZM699.028 550.68L702.356 541.544L702.42 544.232L694.884 525.72H698.9L704.244 539.416H703.22L708.42 525.72H712.276L702.644 550.68H699.028ZM721.669 543.48C719.941 543.48 718.432 543.091 717.141 542.312C715.85 541.533 714.848 540.461 714.133 539.096C713.429 537.72 713.077 536.141 713.077 534.36C713.077 532.547 713.44 530.957 714.165 529.592C714.89 528.227 715.898 527.16 717.189 526.392C718.48 525.624 719.973 525.24 721.669 525.24C723.408 525.24 724.922 525.629 726.213 526.408C727.504 527.187 728.506 528.264 729.221 529.64C729.936 531.005 730.293 532.579 730.293 534.36C730.293 536.152 729.93 537.736 729.205 539.112C728.49 540.477 727.488 541.549 726.197 542.328C724.906 543.096 723.397 543.48 721.669 543.48ZM721.669 539.864C723.205 539.864 724.346 539.352 725.093 538.328C725.84 537.304 726.213 535.981 726.213 534.36C726.213 532.685 725.834 531.352 725.077 530.36C724.32 529.357 723.184 528.856 721.669 528.856C720.634 528.856 719.781 529.091 719.109 529.56C718.448 530.019 717.957 530.664 717.637 531.496C717.317 532.317 717.157 533.272 717.157 534.36C717.157 536.035 717.536 537.373 718.293 538.376C719.061 539.368 720.186 539.864 721.669 539.864ZM740.298 543.496C739.018 543.496 737.962 543.283 737.13 542.856C736.298 542.429 735.637 541.885 735.146 541.224C734.655 540.563 734.293 539.859 734.058 539.112C733.823 538.365 733.669 537.661 733.594 537C733.53 536.328 733.498 535.784 733.498 535.368V525.72H737.402V534.04C737.402 534.573 737.439 535.176 737.514 535.848C737.589 536.509 737.759 537.149 738.026 537.768C738.303 538.376 738.709 538.877 739.242 539.272C739.786 539.667 740.517 539.864 741.434 539.864C741.925 539.864 742.41 539.784 742.89 539.624C743.37 539.464 743.802 539.192 744.186 538.808C744.581 538.413 744.895 537.875 745.13 537.192C745.365 536.509 745.482 535.645 745.482 534.6L747.77 535.576C747.77 537.048 747.482 538.381 746.906 539.576C746.341 540.771 745.503 541.725 744.394 542.44C743.285 543.144 741.919 543.496 740.298 543.496ZM745.946 543V537.64H745.482V525.72H749.354V543H745.946ZM770.384 543C769.242 543.213 768.122 543.304 767.024 543.272C765.936 543.251 764.96 543.053 764.096 542.68C763.232 542.296 762.576 541.693 762.128 540.872C761.733 540.125 761.525 539.363 761.504 538.584C761.482 537.805 761.472 536.925 761.472 535.944V520.92H765.312V535.72C765.312 536.413 765.317 537.021 765.328 537.544C765.349 538.067 765.461 538.493 765.664 538.824C766.048 539.464 766.661 539.821 767.504 539.896C768.346 539.971 769.306 539.928 770.384 539.768V543ZM758.336 528.744V525.72H770.384V528.744H758.336ZM780.856 543.48C779.128 543.48 777.619 543.091 776.328 542.312C775.038 541.533 774.035 540.461 773.32 539.096C772.616 537.72 772.264 536.141 772.264 534.36C772.264 532.547 772.627 530.957 773.352 529.592C774.078 528.227 775.086 527.16 776.376 526.392C777.667 525.624 779.16 525.24 780.856 525.24C782.595 525.24 784.11 525.629 785.4 526.408C786.691 527.187 787.694 528.264 788.408 529.64C789.123 531.005 789.48 532.579 789.48 534.36C789.48 536.152 789.118 537.736 788.392 539.112C787.678 540.477 786.675 541.549 785.384 542.328C784.094 543.096 782.584 543.48 780.856 543.48ZM780.856 539.864C782.392 539.864 783.534 539.352 784.28 538.328C785.027 537.304 785.4 535.981 785.4 534.36C785.4 532.685 785.022 531.352 784.264 530.36C783.507 529.357 782.371 528.856 780.856 528.856C779.822 528.856 778.968 529.091 778.296 529.56C777.635 530.019 777.144 530.664 776.824 531.496C776.504 532.317 776.344 533.272 776.344 534.36C776.344 536.035 776.723 537.373 777.48 538.376C778.248 539.368 779.374 539.864 780.856 539.864ZM800.916 543V525.448C800.916 525.011 800.932 524.531 800.964 524.008C800.996 523.475 801.087 522.947 801.236 522.424C801.385 521.901 801.657 521.427 802.052 521C802.543 520.456 803.071 520.083 803.636 519.88C804.212 519.667 804.777 519.549 805.332 519.528C805.887 519.496 806.372 519.48 806.788 519.48H808.948V522.616H806.948C806.212 522.616 805.663 522.803 805.3 523.176C804.948 523.539 804.772 524.019 804.772 524.616V543H800.916ZM798.132 528.744V525.72H808.948V528.744H798.132ZM812.308 523.096V519.56H816.164V523.096H812.308ZM812.308 543V525.72H816.164V543H812.308ZM832.926 543V534.68C832.926 534.136 832.889 533.533 832.814 532.872C832.74 532.211 832.564 531.576 832.286 530.968C832.02 530.349 831.614 529.843 831.07 529.448C830.537 529.053 829.812 528.856 828.894 528.856C828.404 528.856 827.918 528.936 827.438 529.096C826.958 529.256 826.521 529.533 826.126 529.928C825.742 530.312 825.433 530.845 825.198 531.528C824.964 532.2 824.846 533.064 824.846 534.12L822.558 533.144C822.558 531.672 822.841 530.339 823.406 529.144C823.982 527.949 824.825 527 825.934 526.296C827.044 525.581 828.409 525.224 830.03 525.224C831.31 525.224 832.366 525.437 833.198 525.864C834.03 526.291 834.692 526.835 835.182 527.496C835.673 528.157 836.036 528.861 836.27 529.608C836.505 530.355 836.654 531.064 836.718 531.736C836.793 532.397 836.83 532.936 836.83 533.352V543H832.926ZM820.942 543V525.72H824.382V531.08H824.846V543H820.942ZM847.652 543.48C846.063 543.48 844.676 543.08 843.492 542.28C842.308 541.48 841.391 540.392 840.74 539.016C840.09 537.64 839.764 536.088 839.764 534.36C839.764 532.611 840.09 531.053 840.74 529.688C841.402 528.312 842.335 527.229 843.54 526.44C844.746 525.64 846.164 525.24 847.796 525.24C849.439 525.24 850.815 525.64 851.924 526.44C853.044 527.229 853.892 528.312 854.468 529.688C855.044 531.064 855.332 532.621 855.332 534.36C855.332 536.077 855.044 537.629 854.468 539.016C853.892 540.392 853.034 541.48 851.892 542.28C850.751 543.08 849.338 543.48 847.652 543.48ZM848.244 540.024C849.279 540.024 850.111 539.789 850.74 539.32C851.38 538.84 851.844 538.173 852.132 537.32C852.431 536.467 852.58 535.48 852.58 534.36C852.58 533.229 852.431 532.243 852.132 531.4C851.844 530.547 851.391 529.885 850.772 529.416C850.154 528.936 849.354 528.696 848.372 528.696C847.338 528.696 846.484 528.952 845.812 529.464C845.14 529.965 844.644 530.648 844.324 531.512C844.004 532.365 843.844 533.315 843.844 534.36C843.844 535.416 843.999 536.376 844.308 537.24C844.628 538.093 845.114 538.771 845.764 539.272C846.415 539.773 847.242 540.024 848.244 540.024ZM852.58 543V530.872H852.1V519.96H855.988V543H852.58ZM877.009 543C875.867 543.213 874.747 543.304 873.649 543.272C872.561 543.251 871.585 543.053 870.721 542.68C869.857 542.296 869.201 541.693 868.753 540.872C868.358 540.125 868.15 539.363 868.129 538.584C868.107 537.805 868.097 536.925 868.097 535.944V520.92H871.937V535.72C871.937 536.413 871.942 537.021 871.953 537.544C871.974 538.067 872.086 538.493 872.289 538.824C872.673 539.464 873.286 539.821 874.129 539.896C874.971 539.971 875.931 539.928 877.009 539.768V543ZM864.961 528.744V525.72H877.009V528.744H864.961ZM892.676 543V534.68C892.676 534.136 892.639 533.533 892.564 532.872C892.49 532.211 892.314 531.576 892.036 530.968C891.77 530.349 891.364 529.843 890.82 529.448C890.287 529.053 889.562 528.856 888.644 528.856C888.154 528.856 887.668 528.936 887.188 529.096C886.708 529.256 886.271 529.533 885.876 529.928C885.492 530.312 885.183 530.845 884.948 531.528C884.714 532.2 884.596 533.064 884.596 534.12L882.308 533.144C882.308 531.672 882.591 530.339 883.156 529.144C883.732 527.949 884.575 527 885.684 526.296C886.794 525.581 888.159 525.224 889.78 525.224C891.06 525.224 892.116 525.437 892.948 525.864C893.78 526.291 894.442 526.835 894.932 527.496C895.423 528.157 895.786 528.861 896.02 529.608C896.255 530.355 896.404 531.064 896.468 531.736C896.543 532.397 896.58 532.936 896.58 533.352V543H892.676ZM880.692 543V519.96H884.132V532.088H884.596V543H880.692ZM908.612 543.48C906.862 543.48 905.326 543.101 904.004 542.344C902.681 541.587 901.646 540.536 900.9 539.192C900.164 537.848 899.796 536.301 899.796 534.552C899.796 532.664 900.158 531.027 900.884 529.64C901.609 528.243 902.617 527.16 903.908 526.392C905.198 525.624 906.692 525.24 908.388 525.24C910.18 525.24 911.7 525.661 912.948 526.504C914.206 527.336 915.14 528.515 915.748 530.04C916.356 531.565 916.585 533.363 916.436 535.432H912.612V534.024C912.601 532.147 912.27 530.776 911.62 529.912C910.969 529.048 909.945 528.616 908.548 528.616C906.969 528.616 905.796 529.107 905.028 530.088C904.26 531.059 903.876 532.483 903.876 534.36C903.876 536.109 904.26 537.464 905.028 538.424C905.796 539.384 906.916 539.864 908.388 539.864C909.337 539.864 910.153 539.656 910.836 539.24C911.529 538.813 912.062 538.2 912.436 537.4L916.244 538.552C915.582 540.109 914.558 541.32 913.172 542.184C911.796 543.048 910.276 543.48 908.612 543.48ZM902.66 535.432V532.52H914.548V535.432H902.66ZM934.716 543.48C933.031 543.48 931.617 543.08 930.476 542.28C929.335 541.48 928.476 540.392 927.9 539.016C927.324 537.629 927.036 536.077 927.036 534.36C927.036 532.621 927.324 531.064 927.9 529.688C928.476 528.312 929.319 527.229 930.428 526.44C931.548 525.64 932.929 525.24 934.572 525.24C936.204 525.24 937.617 525.64 938.812 526.44C940.017 527.229 940.951 528.312 941.612 529.688C942.273 531.053 942.604 532.611 942.604 534.36C942.604 536.088 942.279 537.64 941.628 539.016C940.977 540.392 940.06 541.48 938.876 542.28C937.692 543.08 936.305 543.48 934.716 543.48ZM926.38 543V519.96H930.268V530.872H929.788V543H926.38ZM934.124 540.024C935.127 540.024 935.953 539.773 936.604 539.272C937.255 538.771 937.735 538.093 938.044 537.24C938.364 536.376 938.524 535.416 938.524 534.36C938.524 533.315 938.364 532.365 938.044 531.512C937.724 530.648 937.228 529.965 936.556 529.464C935.884 528.952 935.031 528.696 933.996 528.696C933.015 528.696 932.215 528.936 931.596 529.416C930.977 529.885 930.519 530.547 930.22 531.4C929.932 532.243 929.788 533.229 929.788 534.36C929.788 535.48 929.932 536.467 930.22 537.32C930.519 538.173 930.983 538.84 931.612 539.32C932.252 539.789 933.089 540.024 934.124 540.024ZM953.987 543.48C952.237 543.48 950.701 543.101 949.379 542.344C948.056 541.587 947.021 540.536 946.275 539.192C945.539 537.848 945.171 536.301 945.171 534.552C945.171 532.664 945.533 531.027 946.259 529.64C946.984 528.243 947.992 527.16 949.283 526.392C950.573 525.624 952.067 525.24 953.763 525.24C955.555 525.24 957.075 525.661 958.323 526.504C959.581 527.336 960.515 528.515 961.123 530.04C961.731 531.565 961.96 533.363 961.811 535.432H957.987V534.024C957.976 532.147 957.645 530.776 956.995 529.912C956.344 529.048 955.32 528.616 953.923 528.616C952.344 528.616 951.171 529.107 950.403 530.088C949.635 531.059 949.251 532.483 949.251 534.36C949.251 536.109 949.635 537.464 950.403 538.424C951.171 539.384 952.291 539.864 953.763 539.864C954.712 539.864 955.528 539.656 956.211 539.24C956.904 538.813 957.437 538.2 957.811 537.4L961.619 538.552C960.957 540.109 959.933 541.32 958.547 542.184C957.171 543.048 955.651 543.48 953.987 543.48ZM948.035 535.432V532.52H959.923V535.432H948.035ZM972.053 543.48C969.919 543.48 968.186 543 966.853 542.04C965.519 541.08 964.709 539.731 964.421 537.992L968.357 537.384C968.559 538.237 969.007 538.909 969.701 539.4C970.394 539.891 971.269 540.136 972.325 540.136C973.253 540.136 973.967 539.955 974.469 539.592C974.981 539.219 975.237 538.712 975.237 538.072C975.237 537.677 975.141 537.363 974.949 537.128C974.767 536.883 974.362 536.648 973.733 536.424C973.103 536.2 972.138 535.917 970.837 535.576C969.386 535.192 968.234 534.781 967.381 534.344C966.527 533.896 965.914 533.368 965.541 532.76C965.167 532.152 964.981 531.416 964.981 530.552C964.981 529.475 965.263 528.536 965.829 527.736C966.394 526.936 967.183 526.323 968.197 525.896C969.21 525.459 970.405 525.24 971.781 525.24C973.125 525.24 974.314 525.448 975.349 525.864C976.394 526.28 977.237 526.872 977.877 527.64C978.517 528.408 978.911 529.309 979.061 530.344L975.125 531.048C975.029 530.312 974.693 529.731 974.117 529.304C973.551 528.877 972.794 528.637 971.845 528.584C970.938 528.531 970.207 528.669 969.653 529C969.098 529.32 968.821 529.773 968.821 530.36C968.821 530.691 968.933 530.973 969.157 531.208C969.381 531.443 969.829 531.677 970.501 531.912C971.183 532.147 972.197 532.435 973.541 532.776C974.917 533.128 976.015 533.533 976.837 533.992C977.669 534.44 978.266 534.979 978.629 535.608C979.002 536.237 979.189 537 979.189 537.896C979.189 539.635 978.554 541 977.285 541.992C976.026 542.984 974.282 543.48 972.053 543.48ZM992.821 543C991.68 543.213 990.56 543.304 989.461 543.272C988.373 543.251 987.397 543.053 986.533 542.68C985.669 542.296 985.013 541.693 984.565 540.872C984.17 540.125 983.962 539.363 983.941 538.584C983.92 537.805 983.909 536.925 983.909 535.944V520.92H987.749V535.72C987.749 536.413 987.754 537.021 987.765 537.544C987.786 538.067 987.898 538.493 988.101 538.824C988.485 539.464 989.098 539.821 989.941 539.896C990.784 539.971 991.744 539.928 992.821 539.768V543ZM980.773 528.744V525.72H992.821V528.744H980.773ZM1000.38 550.68V547.064H1001.2C1002.14 547.064 1002.8 546.845 1003.2 546.408C1003.59 545.971 1003.79 545.325 1003.79 544.472V525.72H1007.63V546.2C1007.63 547.597 1007.22 548.691 1006.4 549.48C1005.59 550.28 1004.46 550.68 1003.01 550.68H1000.38ZM1003.79 523.096V519.56H1007.63V523.096H1003.79ZM1019.79 543.48C1018.07 543.48 1016.56 543.091 1015.27 542.312C1013.98 541.533 1012.97 540.461 1012.26 539.096C1011.55 537.72 1011.2 536.141 1011.2 534.36C1011.2 532.547 1011.56 530.957 1012.29 529.592C1013.02 528.227 1014.02 527.16 1015.31 526.392C1016.6 525.624 1018.1 525.24 1019.79 525.24C1021.53 525.24 1023.05 525.629 1024.34 526.408C1025.63 527.187 1026.63 528.264 1027.35 529.64C1028.06 531.005 1028.42 532.579 1028.42 534.36C1028.42 536.152 1028.06 537.736 1027.33 539.112C1026.62 540.477 1025.61 541.549 1024.32 542.328C1023.03 543.096 1021.52 543.48 1019.79 543.48ZM1019.79 539.864C1021.33 539.864 1022.47 539.352 1023.22 538.328C1023.96 537.304 1024.34 535.981 1024.34 534.36C1024.34 532.685 1023.96 531.352 1023.2 530.36C1022.44 529.357 1021.31 528.856 1019.79 528.856C1018.76 528.856 1017.91 529.091 1017.23 529.56C1016.57 530.019 1016.08 530.664 1015.76 531.496C1015.44 532.317 1015.28 533.272 1015.28 534.36C1015.28 536.035 1015.66 537.373 1016.42 538.376C1017.19 539.368 1018.31 539.864 1019.79 539.864ZM1040.25 543.48C1038.56 543.48 1037.15 543.08 1036.01 542.28C1034.87 541.48 1034.01 540.392 1033.43 539.016C1032.86 537.629 1032.57 536.077 1032.57 534.36C1032.57 532.621 1032.86 531.064 1033.43 529.688C1034.01 528.312 1034.85 527.229 1035.96 526.44C1037.08 525.64 1038.46 525.24 1040.1 525.24C1041.74 525.24 1043.15 525.64 1044.34 526.44C1045.55 527.229 1046.48 528.312 1047.14 529.688C1047.8 531.053 1048.14 532.611 1048.14 534.36C1048.14 536.088 1047.81 537.64 1047.16 539.016C1046.51 540.392 1045.59 541.48 1044.41 542.28C1043.22 543.08 1041.84 543.48 1040.25 543.48ZM1031.91 543V519.96H1035.8V530.872H1035.32V543H1031.91ZM1039.66 540.024C1040.66 540.024 1041.48 539.773 1042.14 539.272C1042.79 538.771 1043.27 538.093 1043.58 537.24C1043.9 536.376 1044.06 535.416 1044.06 534.36C1044.06 533.315 1043.9 532.365 1043.58 531.512C1043.26 530.648 1042.76 529.965 1042.09 529.464C1041.42 528.952 1040.56 528.696 1039.53 528.696C1038.55 528.696 1037.75 528.936 1037.13 529.416C1036.51 529.885 1036.05 530.547 1035.75 531.4C1035.46 532.243 1035.32 533.229 1035.32 534.36C1035.32 535.48 1035.46 536.467 1035.75 537.32C1036.05 538.173 1036.51 538.84 1037.14 539.32C1037.78 539.789 1038.62 540.024 1039.66 540.024ZM1068.2 543C1067.05 543.213 1065.93 543.304 1064.84 543.272C1063.75 543.251 1062.77 543.053 1061.91 542.68C1061.04 542.296 1060.39 541.693 1059.94 540.872C1059.55 540.125 1059.34 539.363 1059.32 538.584C1059.29 537.805 1059.28 536.925 1059.28 535.944V520.92H1063.12V535.72C1063.12 536.413 1063.13 537.021 1063.14 537.544C1063.16 538.067 1063.27 538.493 1063.48 538.824C1063.86 539.464 1064.47 539.821 1065.32 539.896C1066.16 539.971 1067.12 539.928 1068.2 539.768V543ZM1056.15 528.744V525.72H1068.2V528.744H1056.15ZM1078.67 543.48C1076.94 543.48 1075.43 543.091 1074.14 542.312C1072.85 541.533 1071.85 540.461 1071.13 539.096C1070.43 537.72 1070.08 536.141 1070.08 534.36C1070.08 532.547 1070.44 530.957 1071.16 529.592C1071.89 528.227 1072.9 527.16 1074.19 526.392C1075.48 525.624 1076.97 525.24 1078.67 525.24C1080.41 525.24 1081.92 525.629 1083.21 526.408C1084.5 527.187 1085.51 528.264 1086.22 529.64C1086.94 531.005 1087.29 532.579 1087.29 534.36C1087.29 536.152 1086.93 537.736 1086.2 539.112C1085.49 540.477 1084.49 541.549 1083.2 542.328C1081.91 543.096 1080.4 543.48 1078.67 543.48ZM1078.67 539.864C1080.2 539.864 1081.35 539.352 1082.09 538.328C1082.84 537.304 1083.21 535.981 1083.21 534.36C1083.21 532.685 1082.83 531.352 1082.08 530.36C1081.32 529.357 1080.18 528.856 1078.67 528.856C1077.63 528.856 1076.78 529.091 1076.11 529.56C1075.45 530.019 1074.96 530.664 1074.64 531.496C1074.32 532.317 1074.16 533.272 1074.16 534.36C1074.16 536.035 1074.54 537.373 1075.29 538.376C1076.06 539.368 1077.19 539.864 1078.67 539.864ZM1105.53 543.48C1103.84 543.48 1102.43 543.08 1101.29 542.28C1100.15 541.48 1099.29 540.392 1098.71 539.016C1098.14 537.629 1097.85 536.077 1097.85 534.36C1097.85 532.621 1098.14 531.064 1098.71 529.688C1099.29 528.312 1100.13 527.229 1101.24 526.44C1102.36 525.64 1103.74 525.24 1105.38 525.24C1107.02 525.24 1108.43 525.64 1109.62 526.44C1110.83 527.229 1111.76 528.312 1112.42 529.688C1113.09 531.053 1113.42 532.611 1113.42 534.36C1113.42 536.088 1113.09 537.64 1112.44 539.016C1111.79 540.392 1110.87 541.48 1109.69 542.28C1108.5 543.08 1107.12 543.48 1105.53 543.48ZM1097.19 543V519.96H1101.08V530.872H1100.6V543H1097.19ZM1104.94 540.024C1105.94 540.024 1106.77 539.773 1107.42 539.272C1108.07 538.771 1108.55 538.093 1108.86 537.24C1109.18 536.376 1109.34 535.416 1109.34 534.36C1109.34 533.315 1109.18 532.365 1108.86 531.512C1108.54 530.648 1108.04 529.965 1107.37 529.464C1106.7 528.952 1105.84 528.696 1104.81 528.696C1103.83 528.696 1103.03 528.936 1102.41 529.416C1101.79 529.885 1101.33 530.547 1101.03 531.4C1100.74 532.243 1100.6 533.229 1100.6 534.36C1100.6 535.48 1100.74 536.467 1101.03 537.32C1101.33 538.173 1101.8 538.84 1102.42 539.32C1103.06 539.789 1103.9 540.024 1104.94 540.024ZM1123.42 543.496C1122.14 543.496 1121.09 543.283 1120.26 542.856C1119.42 542.429 1118.76 541.885 1118.27 541.224C1117.78 540.563 1117.42 539.859 1117.18 539.112C1116.95 538.365 1116.79 537.661 1116.72 537C1116.66 536.328 1116.62 535.784 1116.62 535.368V525.72H1120.53V534.04C1120.53 534.573 1120.56 535.176 1120.64 535.848C1120.71 536.509 1120.88 537.149 1121.15 537.768C1121.43 538.376 1121.83 538.877 1122.37 539.272C1122.91 539.667 1123.64 539.864 1124.56 539.864C1125.05 539.864 1125.54 539.784 1126.02 539.624C1126.5 539.464 1126.93 539.192 1127.31 538.808C1127.71 538.413 1128.02 537.875 1128.26 537.192C1128.49 536.509 1128.61 535.645 1128.61 534.6L1130.9 535.576C1130.9 537.048 1130.61 538.381 1130.03 539.576C1129.47 540.771 1128.63 541.725 1127.52 542.44C1126.41 543.144 1125.04 543.496 1123.42 543.496ZM1129.07 543V537.64H1128.61V525.72H1132.48V543H1129.07ZM1137.29 523.096V519.56H1141.15V523.096H1137.29ZM1137.29 543V525.72H1141.15V543H1137.29ZM1146.26 543V519.48H1150.12V543H1146.26ZM1161.84 543.48C1160.25 543.48 1158.86 543.08 1157.68 542.28C1156.5 541.48 1155.58 540.392 1154.93 539.016C1154.28 537.64 1153.95 536.088 1153.95 534.36C1153.95 532.611 1154.28 531.053 1154.93 529.688C1155.59 528.312 1156.52 527.229 1157.73 526.44C1158.93 525.64 1160.35 525.24 1161.98 525.24C1163.63 525.24 1165 525.64 1166.11 526.44C1167.23 527.229 1168.08 528.312 1168.66 529.688C1169.23 531.064 1169.52 532.621 1169.52 534.36C1169.52 536.077 1169.23 537.629 1168.66 539.016C1168.08 540.392 1167.22 541.48 1166.08 542.28C1164.94 543.08 1163.53 543.48 1161.84 543.48ZM1162.43 540.024C1163.47 540.024 1164.3 539.789 1164.93 539.32C1165.57 538.84 1166.03 538.173 1166.32 537.32C1166.62 536.467 1166.77 535.48 1166.77 534.36C1166.77 533.229 1166.62 532.243 1166.32 531.4C1166.03 530.547 1165.58 529.885 1164.96 529.416C1164.34 528.936 1163.54 528.696 1162.56 528.696C1161.53 528.696 1160.67 528.952 1160 529.464C1159.33 529.965 1158.83 530.648 1158.51 531.512C1158.19 532.365 1158.03 533.315 1158.03 534.36C1158.03 535.416 1158.19 536.376 1158.5 537.24C1158.82 538.093 1159.3 538.771 1159.95 539.272C1160.6 539.773 1161.43 540.024 1162.43 540.024ZM1166.77 543V530.872H1166.29V519.96H1170.18V543H1166.77ZM1183.34 550.68L1186.67 541.544L1186.73 544.232L1179.2 525.72H1183.21L1188.56 539.416H1187.53L1192.73 525.72H1196.59L1186.96 550.68H1183.34ZM1205.98 543.48C1204.25 543.48 1202.74 543.091 1201.45 542.312C1200.16 541.533 1199.16 540.461 1198.45 539.096C1197.74 537.72 1197.39 536.141 1197.39 534.36C1197.39 532.547 1197.75 530.957 1198.48 529.592C1199.2 528.227 1200.21 527.16 1201.5 526.392C1202.79 525.624 1204.29 525.24 1205.98 525.24C1207.72 525.24 1209.23 525.629 1210.53 526.408C1211.82 527.187 1212.82 528.264 1213.53 529.64C1214.25 531.005 1214.61 532.579 1214.61 534.36C1214.61 536.152 1214.24 537.736 1213.52 539.112C1212.8 540.477 1211.8 541.549 1210.51 542.328C1209.22 543.096 1207.71 543.48 1205.98 543.48ZM1205.98 539.864C1207.52 539.864 1208.66 539.352 1209.41 538.328C1210.15 537.304 1210.53 535.981 1210.53 534.36C1210.53 532.685 1210.15 531.352 1209.39 530.36C1208.63 529.357 1207.5 528.856 1205.98 528.856C1204.95 528.856 1204.09 529.091 1203.42 529.56C1202.76 530.019 1202.27 530.664 1201.95 531.496C1201.63 532.317 1201.47 533.272 1201.47 534.36C1201.47 536.035 1201.85 537.373 1202.61 538.376C1203.37 539.368 1204.5 539.864 1205.98 539.864ZM1224.61 543.496C1223.33 543.496 1222.27 543.283 1221.44 542.856C1220.61 542.429 1219.95 541.885 1219.46 541.224C1218.97 540.563 1218.61 539.859 1218.37 539.112C1218.14 538.365 1217.98 537.661 1217.91 537C1217.84 536.328 1217.81 535.784 1217.81 535.368V525.72H1221.71V534.04C1221.71 534.573 1221.75 535.176 1221.83 535.848C1221.9 536.509 1222.07 537.149 1222.34 537.768C1222.62 538.376 1223.02 538.877 1223.55 539.272C1224.1 539.667 1224.83 539.864 1225.75 539.864C1226.24 539.864 1226.72 539.784 1227.2 539.624C1227.68 539.464 1228.11 539.192 1228.5 538.808C1228.89 538.413 1229.21 537.875 1229.44 537.192C1229.68 536.509 1229.79 535.645 1229.79 534.6L1232.08 535.576C1232.08 537.048 1231.79 538.381 1231.22 539.576C1230.65 540.771 1229.82 541.725 1228.71 542.44C1227.6 543.144 1226.23 543.496 1224.61 543.496ZM1230.26 543V537.64H1229.79V525.72H1233.67V543H1230.26ZM1238.16 543V525.72H1241.57V529.928L1241.15 529.384C1241.37 528.808 1241.65 528.285 1242 527.816C1242.36 527.336 1242.8 526.941 1243.3 526.632C1243.72 526.344 1244.19 526.12 1244.71 525.96C1245.23 525.789 1245.76 525.688 1246.31 525.656C1246.85 525.613 1247.38 525.635 1247.89 525.72V529.32C1247.38 529.171 1246.79 529.123 1246.11 529.176C1245.45 529.229 1244.86 529.416 1244.32 529.736C1243.79 530.024 1243.35 530.392 1243.01 530.84C1242.68 531.288 1242.43 531.8 1242.27 532.376C1242.11 532.941 1242.03 533.555 1242.03 534.216V543H1238.16ZM1258.85 543V525.448C1258.85 525.011 1258.87 524.531 1258.9 524.008C1258.93 523.475 1259.02 522.947 1259.17 522.424C1259.32 521.901 1259.59 521.427 1259.99 521C1260.48 520.456 1261.01 520.083 1261.57 519.88C1262.15 519.667 1262.71 519.549 1263.27 519.528C1263.82 519.496 1264.31 519.48 1264.73 519.48H1266.89V522.616H1264.89C1264.15 522.616 1263.6 522.803 1263.24 523.176C1262.89 523.539 1262.71 524.019 1262.71 524.616V543H1258.85ZM1256.07 528.744V525.72H1266.89V528.744H1256.07ZM1275.92 543.496C1274.64 543.496 1273.59 543.283 1272.76 542.856C1271.92 542.429 1271.26 541.885 1270.77 541.224C1270.28 540.563 1269.92 539.859 1269.68 539.112C1269.45 538.365 1269.29 537.661 1269.22 537C1269.16 536.328 1269.12 535.784 1269.12 535.368V525.72H1273.03V534.04C1273.03 534.573 1273.06 535.176 1273.14 535.848C1273.21 536.509 1273.38 537.149 1273.65 537.768C1273.93 538.376 1274.33 538.877 1274.87 539.272C1275.41 539.667 1276.14 539.864 1277.06 539.864C1277.55 539.864 1278.04 539.784 1278.52 539.624C1279 539.464 1279.43 539.192 1279.81 538.808C1280.21 538.413 1280.52 537.875 1280.76 537.192C1280.99 536.509 1281.11 535.645 1281.11 534.6L1283.4 535.576C1283.4 537.048 1283.11 538.381 1282.53 539.576C1281.97 540.771 1281.13 541.725 1280.02 542.44C1278.91 543.144 1277.54 543.496 1275.92 543.496ZM1281.57 543V537.64H1281.11V525.72H1284.98V543H1281.57ZM1299.6 543C1298.46 543.213 1297.34 543.304 1296.24 543.272C1295.15 543.251 1294.18 543.053 1293.31 542.68C1292.45 542.296 1291.79 541.693 1291.35 540.872C1290.95 540.125 1290.74 539.363 1290.72 538.584C1290.7 537.805 1290.69 536.925 1290.69 535.944V520.92H1294.53V535.72C1294.53 536.413 1294.54 537.021 1294.55 537.544C1294.57 538.067 1294.68 538.493 1294.88 538.824C1295.27 539.464 1295.88 539.821 1296.72 539.896C1297.57 539.971 1298.53 539.928 1299.6 539.768V543ZM1287.55 528.744V525.72H1299.6V528.744H1287.55ZM1309.8 543.496C1308.52 543.496 1307.46 543.283 1306.63 542.856C1305.8 542.429 1305.14 541.885 1304.65 541.224C1304.16 540.563 1303.79 539.859 1303.56 539.112C1303.32 538.365 1303.17 537.661 1303.09 537C1303.03 536.328 1303 535.784 1303 535.368V525.72H1306.9V534.04C1306.9 534.573 1306.94 535.176 1307.01 535.848C1307.09 536.509 1307.26 537.149 1307.53 537.768C1307.8 538.376 1308.21 538.877 1308.74 539.272C1309.29 539.667 1310.02 539.864 1310.93 539.864C1311.42 539.864 1311.91 539.784 1312.39 539.624C1312.87 539.464 1313.3 539.192 1313.69 538.808C1314.08 538.413 1314.4 537.875 1314.63 537.192C1314.86 536.509 1314.98 535.645 1314.98 534.6L1317.27 535.576C1317.27 537.048 1316.98 538.381 1316.41 539.576C1315.84 540.771 1315 541.725 1313.89 542.44C1312.78 543.144 1311.42 543.496 1309.8 543.496ZM1315.45 543V537.64H1314.98V525.72H1318.85V543H1315.45ZM1323.35 543V525.72H1326.76V529.928L1326.34 529.384C1326.55 528.808 1326.84 528.285 1327.19 527.816C1327.55 527.336 1327.98 526.941 1328.49 526.632C1328.91 526.344 1329.38 526.12 1329.89 525.96C1330.42 525.789 1330.95 525.688 1331.49 525.656C1332.04 525.613 1332.57 525.635 1333.08 525.72V529.32C1332.57 529.171 1331.97 529.123 1331.3 529.176C1330.64 529.229 1330.04 529.416 1329.51 529.736C1328.98 530.024 1328.54 530.392 1328.2 530.84C1327.87 531.288 1327.62 531.8 1327.46 532.376C1327.3 532.941 1327.22 533.555 1327.22 534.216V543H1323.35ZM1343.67 543.48C1341.92 543.48 1340.39 543.101 1339.07 542.344C1337.74 541.587 1336.71 540.536 1335.96 539.192C1335.23 537.848 1334.86 536.301 1334.86 534.552C1334.86 532.664 1335.22 531.027 1335.95 529.64C1336.67 528.243 1337.68 527.16 1338.97 526.392C1340.26 525.624 1341.75 525.24 1343.45 525.24C1345.24 525.24 1346.76 525.661 1348.01 526.504C1349.27 527.336 1350.2 528.515 1350.81 530.04C1351.42 531.565 1351.65 533.363 1351.5 535.432H1347.67V534.024C1347.66 532.147 1347.33 530.776 1346.68 529.912C1346.03 529.048 1345.01 528.616 1343.61 528.616C1342.03 528.616 1340.86 529.107 1340.09 530.088C1339.32 531.059 1338.94 532.483 1338.94 534.36C1338.94 536.109 1339.32 537.464 1340.09 538.424C1340.86 539.384 1341.98 539.864 1343.45 539.864C1344.4 539.864 1345.22 539.656 1345.9 539.24C1346.59 538.813 1347.12 538.2 1347.5 537.4L1351.31 538.552C1350.64 540.109 1349.62 541.32 1348.23 542.184C1346.86 543.048 1345.34 543.48 1343.67 543.48ZM1337.72 535.432V532.52H1349.61V535.432H1337.72Z" fill="#F2C94C"/>
<g filter="url(#filter0_d_1_2)">
<path d="M629.416 310C625.32 310 621.704 309.104 618.568 307.312C615.496 305.456 613.064 302.992 611.272 299.92C609.544 296.848 608.68 293.424 608.68 289.648V256.24H590.44V242.8H642.952V256.24H624.808V291.088C624.808 292.56 625.32 293.84 626.344 294.928C627.368 296.016 628.648 296.56 630.184 296.56H635.464V310H629.416ZM645.193 310V239.92H660.073V264.016C661.993 262.48 664.105 261.36 666.409 260.656C668.713 259.952 671.017 259.6 673.321 259.6C677.801 259.6 681.577 260.56 684.649 262.48C687.785 264.4 690.121 267.024 691.657 270.352C693.257 273.68 694.057 277.456 694.057 281.68V310H679.177V282.256C679.177 280.4 678.729 278.768 677.833 277.36C677.001 275.888 675.849 274.736 674.377 273.904C672.969 273.008 671.401 272.56 669.673 272.56C667.945 272.56 666.345 272.976 664.873 273.808C663.401 274.64 662.217 275.76 661.321 277.168C660.489 278.576 660.073 280.176 660.073 281.968V310H645.193ZM730.921 310C725.353 310 720.457 308.976 716.233 306.928C712.009 304.816 708.713 301.936 706.345 298.288C704.041 294.576 702.889 290.288 702.889 285.424C702.889 280.048 704.009 275.44 706.249 271.6C708.489 267.76 711.465 264.816 715.177 262.768C718.953 260.656 723.113 259.6 727.657 259.6C732.841 259.6 737.161 260.688 740.617 262.864C744.137 265.04 746.793 268.016 748.585 271.792C750.377 275.504 751.273 279.76 751.273 284.56C751.273 285.392 751.209 286.384 751.081 287.536C751.017 288.624 750.921 289.488 750.793 290.128H718.537C718.921 291.792 719.657 293.2 720.745 294.352C721.833 295.504 723.209 296.368 724.873 296.944C726.537 297.456 728.393 297.712 730.441 297.712H745.513V310H730.921ZM718.153 280.816H736.873C736.745 279.792 736.553 278.8 736.297 277.84C736.041 276.88 735.625 276.048 735.049 275.344C734.537 274.576 733.929 273.936 733.225 273.424C732.521 272.848 731.689 272.4 730.729 272.08C729.833 271.76 728.809 271.6 727.657 271.6C726.185 271.6 724.873 271.856 723.721 272.368C722.569 272.88 721.609 273.584 720.841 274.48C720.073 275.312 719.465 276.304 719.017 277.456C718.633 278.544 718.345 279.664 718.153 280.816ZM811.365 311.152C806.053 311.152 801.413 310.064 797.445 307.888C793.477 305.712 790.405 302.608 788.229 298.576C786.053 294.544 784.965 289.84 784.965 284.464V239.92H799.845V266.128H800.133C801.093 264.784 802.277 263.632 803.685 262.672C805.157 261.648 806.757 260.88 808.485 260.368C810.277 259.856 812.165 259.6 814.149 259.6C818.821 259.6 822.917 260.656 826.437 262.768C829.957 264.88 832.709 267.792 834.693 271.504C836.741 275.216 837.765 279.568 837.765 284.56C837.765 288.4 837.157 291.952 835.941 295.216C834.725 298.48 832.965 301.328 830.661 303.76C828.421 306.128 825.669 307.952 822.405 309.232C819.205 310.512 815.525 311.152 811.365 311.152ZM811.365 298.288C813.669 298.288 815.653 297.744 817.317 296.656C818.981 295.504 820.261 293.968 821.157 292.048C822.117 290.064 822.597 287.856 822.597 285.424C822.597 282.992 822.117 280.816 821.157 278.896C820.261 276.976 818.981 275.472 817.317 274.384C815.653 273.232 813.669 272.656 811.365 272.656C809.061 272.656 807.045 273.232 805.317 274.384C803.653 275.472 802.373 276.976 801.477 278.896C800.581 280.816 800.133 282.992 800.133 285.424C800.133 287.856 800.581 290.064 801.477 292.048C802.373 293.968 803.653 295.504 805.317 296.656C807.045 297.744 809.061 298.288 811.365 298.288ZM872.296 310C866.728 310 861.832 308.976 857.608 306.928C853.384 304.816 850.088 301.936 847.72 298.288C845.416 294.576 844.264 290.288 844.264 285.424C844.264 280.048 845.384 275.44 847.624 271.6C849.864 267.76 852.84 264.816 856.552 262.768C860.328 260.656 864.488 259.6 869.032 259.6C874.216 259.6 878.536 260.688 881.992 262.864C885.512 265.04 888.168 268.016 889.96 271.792C891.752 275.504 892.648 279.76 892.648 284.56C892.648 285.392 892.584 286.384 892.456 287.536C892.392 288.624 892.296 289.488 892.168 290.128H859.912C860.296 291.792 861.032 293.2 862.12 294.352C863.208 295.504 864.584 296.368 866.248 296.944C867.912 297.456 869.768 297.712 871.816 297.712H886.888V310H872.296ZM859.528 280.816H878.248C878.12 279.792 877.928 278.8 877.672 277.84C877.416 276.88 877 276.048 876.424 275.344C875.912 274.576 875.304 273.936 874.6 273.424C873.896 272.848 873.064 272.4 872.104 272.08C871.208 271.76 870.184 271.6 869.032 271.6C867.56 271.6 866.248 271.856 865.096 272.368C863.944 272.88 862.984 273.584 862.216 274.48C861.448 275.312 860.84 276.304 860.392 277.456C860.008 278.544 859.72 279.664 859.528 280.816ZM901.414 310V298.192H925.126C925.766 298.192 926.342 298.064 926.854 297.808C927.366 297.488 927.782 297.072 928.102 296.56C928.422 296.048 928.582 295.504 928.582 294.928C928.582 294.288 928.422 293.712 928.102 293.2C927.782 292.688 927.366 292.304 926.854 292.048C926.342 291.728 925.766 291.568 925.126 291.568H916.486C913.286 291.568 910.374 291.056 907.75 290.032C905.19 288.944 903.142 287.28 901.606 285.04C900.134 282.736 899.398 279.76 899.398 276.112C899.398 273.296 900.07 270.736 901.414 268.432C902.822 266.128 904.71 264.272 907.078 262.864C909.51 261.456 912.166 260.752 915.046 260.752H938.758V272.656H917.35C916.454 272.656 915.686 272.944 915.046 273.52C914.47 274.096 914.182 274.8 914.182 275.632C914.182 276.528 914.47 277.296 915.046 277.936C915.686 278.512 916.454 278.8 917.35 278.8H925.798C929.382 278.8 932.454 279.344 935.014 280.432C937.638 281.456 939.654 283.12 941.062 285.424C942.534 287.728 943.27 290.704 943.27 294.352C943.27 297.232 942.534 299.856 941.062 302.224C939.654 304.592 937.734 306.48 935.302 307.888C932.934 309.296 930.246 310 927.238 310H901.414ZM968.866 310C964.322 310 960.77 308.72 958.21 306.16C955.65 303.536 954.37 300.016 954.37 295.6V248.752H969.346V294.736C969.346 295.504 969.602 296.176 970.114 296.752C970.69 297.264 971.362 297.52 972.13 297.52H982.882V310H968.866ZM946.306 272.944V260.752H982.882V272.944H946.306ZM1003.84 329.488V316.72H1014.31C1015.27 316.72 1016.04 316.4 1016.61 315.76C1017.25 315.184 1017.57 314.448 1017.57 313.552V260.752H1032.45V315.088C1032.45 319.504 1031.17 322.992 1028.61 325.552C1026.05 328.176 1022.5 329.488 1017.96 329.488H1003.84ZM1024.87 255.088C1022.5 255.088 1020.45 254.224 1018.72 252.496C1017 250.768 1016.13 248.72 1016.13 246.352C1016.13 243.984 1017 241.936 1018.72 240.208C1020.45 238.416 1022.5 237.52 1024.87 237.52C1027.24 237.52 1029.28 238.416 1031.01 240.208C1032.74 241.936 1033.6 243.984 1033.6 246.352C1033.6 248.72 1032.74 250.768 1031.01 252.496C1029.28 254.224 1027.24 255.088 1024.87 255.088ZM1067.92 311.152C1062.86 311.152 1058.32 310.032 1054.29 307.792C1050.26 305.552 1047.06 302.48 1044.69 298.576C1042.38 294.672 1041.23 290.288 1041.23 285.424C1041.23 280.496 1042.38 276.112 1044.69 272.272C1047.06 268.368 1050.26 265.296 1054.29 263.056C1058.32 260.752 1062.86 259.6 1067.92 259.6C1072.98 259.6 1077.49 260.752 1081.46 263.056C1085.49 265.296 1088.66 268.368 1090.96 272.272C1093.33 276.112 1094.51 280.496 1094.51 285.424C1094.51 290.288 1093.33 294.672 1090.96 298.576C1088.66 302.48 1085.49 305.552 1081.46 307.792C1077.42 310.032 1072.91 311.152 1067.92 311.152ZM1067.92 298.192C1070.29 298.192 1072.34 297.616 1074.06 296.464C1075.79 295.312 1077.14 293.776 1078.1 291.856C1079.06 289.936 1079.54 287.76 1079.54 285.328C1079.54 282.96 1079.06 280.816 1078.1 278.896C1077.14 276.976 1075.79 275.44 1074.06 274.288C1072.34 273.136 1070.29 272.56 1067.92 272.56C1065.55 272.56 1063.47 273.136 1061.68 274.288C1059.95 275.44 1058.61 276.976 1057.65 278.896C1056.69 280.816 1056.21 282.96 1056.21 285.328C1056.21 287.76 1056.69 289.936 1057.65 291.856C1058.61 293.776 1059.95 295.312 1061.68 296.464C1063.47 297.616 1065.55 298.192 1067.92 298.192ZM1129.37 311.152C1124.05 311.152 1119.41 310.064 1115.45 307.888C1111.48 305.712 1108.41 302.608 1106.23 298.576C1104.05 294.544 1102.97 289.84 1102.97 284.464V239.92H1117.85V266.128H1118.13C1119.09 264.784 1120.28 263.632 1121.69 262.672C1123.16 261.648 1124.76 260.88 1126.49 260.368C1128.28 259.856 1130.17 259.6 1132.15 259.6C1136.82 259.6 1140.92 260.656 1144.44 262.768C1147.96 264.88 1150.71 267.792 1152.69 271.504C1154.74 275.216 1155.77 279.568 1155.77 284.56C1155.77 288.4 1155.16 291.952 1153.94 295.216C1152.73 298.48 1150.97 301.328 1148.66 303.76C1146.42 306.128 1143.67 307.952 1140.41 309.232C1137.21 310.512 1133.53 311.152 1129.37 311.152ZM1129.37 298.288C1131.67 298.288 1133.65 297.744 1135.32 296.656C1136.98 295.504 1138.26 293.968 1139.16 292.048C1140.12 290.064 1140.6 287.856 1140.6 285.424C1140.6 282.992 1140.12 280.816 1139.16 278.896C1138.26 276.976 1136.98 275.472 1135.32 274.384C1133.65 273.232 1131.67 272.656 1129.37 272.656C1127.06 272.656 1125.05 273.232 1123.32 274.384C1121.65 275.472 1120.37 276.976 1119.48 278.896C1118.58 280.816 1118.13 282.992 1118.13 285.424C1118.13 287.856 1118.58 290.064 1119.48 292.048C1120.37 293.968 1121.65 295.504 1123.32 296.656C1125.05 297.744 1127.06 298.288 1129.37 298.288ZM1164.66 310V298.192H1188.38C1189.02 298.192 1189.59 298.064 1190.1 297.808C1190.62 297.488 1191.03 297.072 1191.35 296.56C1191.67 296.048 1191.83 295.504 1191.83 294.928C1191.83 294.288 1191.67 293.712 1191.35 293.2C1191.03 292.688 1190.62 292.304 1190.1 292.048C1189.59 291.728 1189.02 291.568 1188.38 291.568H1179.74C1176.54 291.568 1173.62 291.056 1171 290.032C1168.44 288.944 1166.39 287.28 1164.86 285.04C1163.38 282.736 1162.65 279.76 1162.65 276.112C1162.65 273.296 1163.32 270.736 1164.66 268.432C1166.07 266.128 1167.96 264.272 1170.33 262.864C1172.76 261.456 1175.42 260.752 1178.3 260.752H1202.01V272.656H1180.6C1179.7 272.656 1178.94 272.944 1178.3 273.52C1177.72 274.096 1177.43 274.8 1177.43 275.632C1177.43 276.528 1177.72 277.296 1178.3 277.936C1178.94 278.512 1179.7 278.8 1180.6 278.8H1189.05C1192.63 278.8 1195.7 279.344 1198.26 280.432C1200.89 281.456 1202.9 283.12 1204.31 285.424C1205.78 287.728 1206.52 290.704 1206.52 294.352C1206.52 297.232 1205.78 299.856 1204.31 302.224C1202.9 304.592 1200.98 306.48 1198.55 307.888C1196.18 309.296 1193.5 310 1190.49 310H1164.66ZM1215.47 310V260.752H1230.45V310H1215.47ZM1222.96 255.184C1220.59 255.184 1218.55 254.32 1216.82 252.592C1215.09 250.864 1214.23 248.816 1214.23 246.448C1214.23 244.08 1215.09 242.032 1216.82 240.304C1218.55 238.512 1220.59 237.616 1222.96 237.616C1225.33 237.616 1227.38 238.512 1229.11 240.304C1230.83 242.032 1231.7 244.08 1231.7 246.448C1231.7 248.816 1230.83 250.864 1229.11 252.592C1227.38 254.32 1225.33 255.184 1222.96 255.184ZM1259.4 310C1254.85 310 1251.3 308.72 1248.74 306.16C1246.18 303.536 1244.9 300.016 1244.9 295.6V248.752H1259.88V294.736C1259.88 295.504 1260.13 296.176 1260.65 296.752C1261.22 297.264 1261.89 297.52 1262.66 297.52H1273.41V310H1259.4ZM1236.84 272.944V260.752H1273.41V272.944H1236.84ZM1306.55 310C1300.98 310 1296.08 308.976 1291.86 306.928C1287.63 304.816 1284.34 301.936 1281.97 298.288C1279.67 294.576 1278.51 290.288 1278.51 285.424C1278.51 280.048 1279.63 275.44 1281.87 271.6C1284.11 267.76 1287.09 264.816 1290.8 262.768C1294.58 260.656 1298.74 259.6 1303.28 259.6C1308.47 259.6 1312.79 260.688 1316.24 262.864C1319.76 265.04 1322.42 268.016 1324.21 271.792C1326 275.504 1326.9 279.76 1326.9 284.56C1326.9 285.392 1326.83 286.384 1326.71 287.536C1326.64 288.624 1326.55 289.488 1326.42 290.128H1294.16C1294.55 291.792 1295.28 293.2 1296.37 294.352C1297.46 295.504 1298.83 296.368 1300.5 296.944C1302.16 297.456 1304.02 297.712 1306.07 297.712H1321.14V310H1306.55ZM1293.78 280.816H1312.5C1312.37 279.792 1312.18 278.8 1311.92 277.84C1311.67 276.88 1311.25 276.048 1310.67 275.344C1310.16 274.576 1309.55 273.936 1308.85 273.424C1308.15 272.848 1307.31 272.4 1306.35 272.08C1305.46 271.76 1304.43 271.6 1303.28 271.6C1301.81 271.6 1300.5 271.856 1299.35 272.368C1298.19 272.88 1297.23 273.584 1296.47 274.48C1295.7 275.312 1295.09 276.304 1294.64 277.456C1294.26 278.544 1293.97 279.664 1293.78 280.816ZM625.546 463V425.944H617.29V413.752H625.546V407.32C625.546 402.84 626.826 399.32 629.386 396.76C631.946 394.2 635.466 392.92 639.946 392.92H654.922V405.112H643.21C642.442 405.112 641.77 405.4 641.194 405.976C640.682 406.488 640.426 407.128 640.426 407.896V413.752H652.81V425.944H640.426V463H625.546ZM683.686 464.152C678.63 464.152 674.086 463.032 670.054 460.792C666.022 458.552 662.822 455.48 660.454 451.576C658.15 447.672 656.998 443.288 656.998 438.424C656.998 433.496 658.15 429.112 660.454 425.272C662.822 421.368 666.022 418.296 670.054 416.056C674.086 413.752 678.63 412.6 683.686 412.6C688.742 412.6 693.254 413.752 697.222 416.056C701.254 418.296 704.422 421.368 706.726 425.272C709.094 429.112 710.278 433.496 710.278 438.424C710.278 443.288 709.094 447.672 706.726 451.576C704.422 455.48 701.254 458.552 697.222 460.792C693.19 463.032 688.678 464.152 683.686 464.152ZM683.686 451.192C686.054 451.192 688.102 450.616 689.83 449.464C691.558 448.312 692.902 446.776 693.862 444.856C694.822 442.936 695.302 440.76 695.302 438.328C695.302 435.96 694.822 433.816 693.862 431.896C692.902 429.976 691.558 428.44 689.83 427.288C688.102 426.136 686.054 425.56 683.686 425.56C681.318 425.56 679.238 426.136 677.446 427.288C675.718 428.44 674.374 429.976 673.414 431.896C672.454 433.816 671.974 435.96 671.974 438.328C671.974 440.76 672.454 442.936 673.414 444.856C674.374 446.776 675.718 448.312 677.446 449.464C679.238 450.616 681.318 451.192 683.686 451.192ZM718.731 463V428.248C718.731 423.768 720.011 420.248 722.571 417.688C725.131 415.128 728.683 413.848 733.227 413.848H747.531V425.944H736.875C735.979 425.944 735.211 426.264 734.571 426.904C733.931 427.48 733.611 428.248 733.611 429.208V463H718.731ZM796.672 482.488V463.288C793.088 462.392 790.016 460.952 787.456 458.968C784.896 456.92 782.944 454.456 781.6 451.576C780.256 448.632 779.584 445.464 779.584 442.072V413.752H794.464V441.592C794.464 443.32 794.88 444.92 795.712 446.392C796.544 447.864 797.664 449.048 799.072 449.944C800.544 450.776 802.176 451.192 803.968 451.192C805.824 451.192 807.456 450.776 808.864 449.944C810.336 449.048 811.488 447.864 812.32 446.392C813.152 444.92 813.568 443.32 813.568 441.592V413.752H828.448V442.072C828.448 445.464 827.776 448.6 826.432 451.48C825.152 454.36 823.232 456.824 820.672 458.872C818.176 460.92 815.136 462.36 811.552 463.192V482.488H796.672ZM863.968 464.152C858.912 464.152 854.368 463.032 850.336 460.792C846.304 458.552 843.104 455.48 840.736 451.576C838.432 447.672 837.28 443.288 837.28 438.424C837.28 433.496 838.432 429.112 840.736 425.272C843.104 421.368 846.304 418.296 850.336 416.056C854.368 413.752 858.912 412.6 863.968 412.6C869.024 412.6 873.536 413.752 877.504 416.056C881.536 418.296 884.704 421.368 887.008 425.272C889.376 429.112 890.56 433.496 890.56 438.424C890.56 443.288 889.376 447.672 887.008 451.576C884.704 455.48 881.536 458.552 877.504 460.792C873.472 463.032 868.96 464.152 863.968 464.152ZM863.968 451.192C866.336 451.192 868.384 450.616 870.112 449.464C871.84 448.312 873.184 446.776 874.144 444.856C875.104 442.936 875.584 440.76 875.584 438.328C875.584 435.96 875.104 433.816 874.144 431.896C873.184 429.976 871.84 428.44 870.112 427.288C868.384 426.136 866.336 425.56 863.968 425.56C861.6 425.56 859.52 426.136 857.728 427.288C856 428.44 854.656 429.976 853.696 431.896C852.736 433.816 852.256 435.96 852.256 438.328C852.256 440.76 852.736 442.936 853.696 444.856C854.656 446.776 856 448.312 857.728 449.464C859.52 450.616 861.6 451.192 863.968 451.192ZM923.972 464.152C918.916 464.152 914.532 463.192 910.82 461.272C907.172 459.288 904.356 456.632 902.372 453.304C900.388 449.912 899.396 446.168 899.396 442.072V413.752H914.276V441.688C914.276 443.416 914.692 445.016 915.524 446.488C916.356 447.896 917.476 449.048 918.884 449.944C920.356 450.776 922.02 451.192 923.876 451.192C925.668 451.192 927.268 450.776 928.676 449.944C930.148 449.048 931.3 447.896 932.132 446.488C932.964 445.016 933.38 443.416 933.38 441.688V413.752H948.26V442.072C948.26 446.168 947.3 449.912 945.38 453.304C943.46 456.632 940.676 459.288 937.028 461.272C933.444 463.192 929.092 464.152 923.972 464.152ZM959.012 463V428.248C959.012 423.768 960.292 420.248 962.852 417.688C965.412 415.128 968.964 413.848 973.508 413.848H987.812V425.944H977.156C976.26 425.944 975.492 426.264 974.852 426.904C974.212 427.48 973.892 428.248 973.892 429.208V463H959.012ZM1023.61 463V425.944H1015.35V413.752H1023.61V407.32C1023.61 402.84 1024.89 399.32 1027.45 396.76C1030.01 394.2 1033.53 392.92 1038.01 392.92H1052.98V405.112H1041.27C1040.5 405.112 1039.83 405.4 1039.26 405.976C1038.74 406.488 1038.49 407.128 1038.49 407.896V413.752H1050.87V425.944H1038.49V463H1023.61ZM1081.94 464.152C1076.88 464.152 1072.5 463.192 1068.79 461.272C1065.14 459.288 1062.32 456.632 1060.34 453.304C1058.36 449.912 1057.36 446.168 1057.36 442.072V413.752H1072.24V441.688C1072.24 443.416 1072.66 445.016 1073.49 446.488C1074.32 447.896 1075.44 449.048 1076.85 449.944C1078.32 450.776 1079.99 451.192 1081.84 451.192C1083.64 451.192 1085.24 450.776 1086.64 449.944C1088.12 449.048 1089.27 447.896 1090.1 446.488C1090.93 445.016 1091.35 443.416 1091.35 441.688V413.752H1106.23V442.072C1106.23 446.168 1105.27 449.912 1103.35 453.304C1101.43 456.632 1098.64 459.288 1095 461.272C1091.41 463.192 1087.06 464.152 1081.94 464.152ZM1135.41 463C1130.87 463 1127.32 461.72 1124.76 459.16C1122.2 456.536 1120.92 453.016 1120.92 448.6V401.752H1135.89V447.736C1135.89 448.504 1136.15 449.176 1136.66 449.752C1137.24 450.264 1137.91 450.52 1138.68 450.52H1149.43V463H1135.41ZM1112.85 425.944V413.752H1149.43V425.944H1112.85ZM1183.1 464.152C1178.04 464.152 1173.66 463.192 1169.95 461.272C1166.3 459.288 1163.48 456.632 1161.5 453.304C1159.51 449.912 1158.52 446.168 1158.52 442.072V413.752H1173.4V441.688C1173.4 443.416 1173.82 445.016 1174.65 446.488C1175.48 447.896 1176.6 449.048 1178.01 449.944C1179.48 450.776 1181.15 451.192 1183 451.192C1184.79 451.192 1186.39 450.776 1187.8 449.944C1189.27 449.048 1190.43 447.896 1191.26 446.488C1192.09 445.016 1192.51 443.416 1192.51 441.688V413.752H1207.39V442.072C1207.39 446.168 1206.43 449.912 1204.51 453.304C1202.59 456.632 1199.8 459.288 1196.15 461.272C1192.57 463.192 1188.22 464.152 1183.1 464.152ZM1218.14 463V428.248C1218.14 423.768 1219.42 420.248 1221.98 417.688C1224.54 415.128 1228.09 413.848 1232.63 413.848H1246.94V425.944H1236.28C1235.39 425.944 1234.62 426.264 1233.98 426.904C1233.34 427.48 1233.02 428.248 1233.02 429.208V463H1218.14ZM1279.31 463C1273.74 463 1268.85 461.976 1264.62 459.928C1260.4 457.816 1257.1 454.936 1254.74 451.288C1252.43 447.576 1251.28 443.288 1251.28 438.424C1251.28 433.048 1252.4 428.44 1254.64 424.6C1256.88 420.76 1259.86 417.816 1263.57 415.768C1267.34 413.656 1271.5 412.6 1276.05 412.6C1281.23 412.6 1285.55 413.688 1289.01 415.864C1292.53 418.04 1295.18 421.016 1296.98 424.792C1298.77 428.504 1299.66 432.76 1299.66 437.56C1299.66 438.392 1299.6 439.384 1299.47 440.536C1299.41 441.624 1299.31 442.488 1299.18 443.128H1266.93C1267.31 444.792 1268.05 446.2 1269.14 447.352C1270.22 448.504 1271.6 449.368 1273.26 449.944C1274.93 450.456 1276.78 450.712 1278.83 450.712H1293.9V463H1279.31ZM1266.54 433.816H1285.26C1285.14 432.792 1284.94 431.8 1284.69 430.84C1284.43 429.88 1284.02 429.048 1283.44 428.344C1282.93 427.576 1282.32 426.936 1281.62 426.424C1280.91 425.848 1280.08 425.4 1279.12 425.08C1278.22 424.76 1277.2 424.6 1276.05 424.6C1274.58 424.6 1273.26 424.856 1272.11 425.368C1270.96 425.88 1270 426.584 1269.23 427.48C1268.46 428.312 1267.86 429.304 1267.41 430.456C1267.02 431.544 1266.74 432.664 1266.54 433.816Z" fill="white"/>
</g>
<rect x="1002" y="353" width="359" height="149" rx="74.5" fill="#FFCE00"/>
<g filter="url(#filter1_d_1_2)">
<path d="M1046.58 461V423.944H1038.32V411.752H1046.58V405.32C1046.58 400.84 1047.86 397.32 1050.42 394.76C1052.98 392.2 1056.5 390.92 1060.98 390.92H1075.95V403.112H1064.24C1063.47 403.112 1062.8 403.4 1062.23 403.976C1061.71 404.488 1061.46 405.128 1061.46 405.896V411.752H1073.84V423.944H1061.46V461H1046.58ZM1104.91 462.152C1099.85 462.152 1095.47 461.192 1091.76 459.272C1088.11 457.288 1085.29 454.632 1083.31 451.304C1081.33 447.912 1080.33 444.168 1080.33 440.072V411.752H1095.21V439.688C1095.21 441.416 1095.63 443.016 1096.46 444.488C1097.29 445.896 1098.41 447.048 1099.82 447.944C1101.29 448.776 1102.96 449.192 1104.81 449.192C1106.61 449.192 1108.21 448.776 1109.61 447.944C1111.09 447.048 1112.24 445.896 1113.07 444.488C1113.9 443.016 1114.32 441.416 1114.32 439.688V411.752H1129.2V440.072C1129.2 444.168 1128.24 447.912 1126.32 451.304C1124.4 454.632 1121.61 457.288 1117.97 459.272C1114.38 461.192 1110.03 462.152 1104.91 462.152ZM1158.38 461C1153.84 461 1150.29 459.72 1147.73 457.16C1145.17 454.536 1143.89 451.016 1143.89 446.6V399.752H1158.86V445.736C1158.86 446.504 1159.12 447.176 1159.63 447.752C1160.21 448.264 1160.88 448.52 1161.65 448.52H1172.4V461H1158.38ZM1135.82 423.944V411.752H1172.4V423.944H1135.82ZM1206.07 462.152C1201.01 462.152 1196.63 461.192 1192.91 459.272C1189.27 457.288 1186.45 454.632 1184.47 451.304C1182.48 447.912 1181.49 444.168 1181.49 440.072V411.752H1196.37V439.688C1196.37 441.416 1196.79 443.016 1197.62 444.488C1198.45 445.896 1199.57 447.048 1200.98 447.944C1202.45 448.776 1204.11 449.192 1205.97 449.192C1207.76 449.192 1209.36 448.776 1210.77 447.944C1212.24 447.048 1213.39 445.896 1214.23 444.488C1215.06 443.016 1215.47 441.416 1215.47 439.688V411.752H1230.35V440.072C1230.35 444.168 1229.39 447.912 1227.47 451.304C1225.55 454.632 1222.77 457.288 1219.12 459.272C1215.54 461.192 1211.19 462.152 1206.07 462.152ZM1241.11 461V426.248C1241.11 421.768 1242.39 418.248 1244.95 415.688C1247.51 413.128 1251.06 411.848 1255.6 411.848H1269.91V423.944H1259.25C1258.35 423.944 1257.59 424.264 1256.95 424.904C1256.31 425.48 1255.99 426.248 1255.99 427.208V461H1241.11ZM1302.28 461C1296.71 461 1291.82 459.976 1287.59 457.928C1283.37 455.816 1280.07 452.936 1277.7 449.288C1275.4 445.576 1274.25 441.288 1274.25 436.424C1274.25 431.048 1275.37 426.44 1277.61 422.6C1279.85 418.76 1282.82 415.816 1286.54 413.768C1290.31 411.656 1294.47 410.6 1299.02 410.6C1304.2 410.6 1308.52 411.688 1311.98 413.864C1315.5 416.04 1318.15 419.016 1319.94 422.792C1321.74 426.504 1322.63 430.76 1322.63 435.56C1322.63 436.392 1322.57 437.384 1322.44 438.536C1322.38 439.624 1322.28 440.488 1322.15 441.128H1289.9C1290.28 442.792 1291.02 444.2 1292.1 445.352C1293.19 446.504 1294.57 447.368 1296.23 447.944C1297.9 448.456 1299.75 448.712 1301.8 448.712H1316.87V461H1302.28ZM1289.51 431.816H1308.23C1308.1 430.792 1307.91 429.8 1307.66 428.84C1307.4 427.88 1306.98 427.048 1306.41 426.344C1305.9 425.576 1305.29 424.936 1304.58 424.424C1303.88 423.848 1303.05 423.4 1302.09 423.08C1301.19 422.76 1300.17 422.6 1299.02 422.6C1297.54 422.6 1296.23 422.856 1295.08 423.368C1293.93 423.88 1292.97 424.584 1292.2 425.48C1291.43 426.312 1290.82 427.304 1290.38 428.456C1289.99 429.544 1289.7 430.664 1289.51 431.816Z" fill="#00324F"/>
</g>
<defs>
<filter id="filter0_d_1_2" x="586.44" y="237.52" width="744.458" height="252.968" filterUnits="userSpaceOnUse" color-interpolation-filters="sRGB">
<feFlood flood-opacity="0" result="BackgroundImageFix"/>
<feColorMatrix in="SourceAlpha" type="matrix" values="0 0 0 0 0 0 0 0 0 0 0 0 0 0 0 0 0 0 127 0" result="hardAlpha"/>
<feOffset dy="4"/>
<feGaussianBlur stdDeviation="2"/>
<feComposite in2="hardAlpha" operator="out"/>
<feColorMatrix type="matrix" values="0 0 0 0 0 0 0 0 0 0 0 0 0 0 0 0 0 0 0.25 0"/>
<feBlend mode="normal" in2="BackgroundImageFix" result="effect1_dropShadow_1_2"/>
<feBlend mode="normal" in="SourceGraphic" in2="effect1_dropShadow_1_2" result="shape"/>
</filter>
<filter id="filter1_d_1_2" x="1034.32" y="390.92" width="292.311" height="79.232" filterUnits="userSpaceOnUse" color-interpolation-filters="sRGB">
<feFlood flood-opacity="0" result="BackgroundImageFix"/>
<feColorMatrix in="SourceAlpha" type="matrix" values="0 0 0 0 0 0 0 0 0 0 0 0 0 0 0 0 0 0 127 0" result="hardAlpha"/>
<feOffset dy="4"/>
<feGaussianBlur stdDeviation="2"/>
<feComposite in2="hardAlpha" operator="out"/>
<feColorMatrix type="matrix" values="0 0 0 0 0 0 0 0 0 0 0 0 0 0 0 0 0 0 0.25 0"/>
<feBlend mode="normal" in2="BackgroundImageFix" result="effect1_dropShadow_1_2"/>
<feBlend mode="normal" in="SourceGraphic" in2="effect1_dropShadow_1_2" result="shape"/>
</filter>
</defs>
</svg>
