<svg width="50" height="50" viewBox="0 0 50 50" fill="none" xmlns="http://www.w3.org/2000/svg">
<path d="M25.7568 44.9347C27.8453 46.3302 30.3007 47.075 32.8125 47.075C36.1808 47.075 39.4111 45.737 41.7928 43.3553C44.1745 40.9736 45.5125 37.7433 45.5125 34.375C45.5125 31.8632 44.7677 29.4078 43.3722 27.3193C41.9767 25.2308 39.9932 23.603 37.6726 22.6417C35.352 21.6805 32.7984 21.429 30.3349 21.919C27.8713 22.4091 25.6084 23.6186 23.8322 25.3947C22.0561 27.1709 20.8466 29.4338 20.3565 31.8974C19.8665 34.3609 20.118 36.9145 21.0792 39.2351C22.0405 41.5557 23.6683 43.5392 25.7568 44.9347ZM27.7151 26.7463C29.224 25.7381 30.9979 25.2 32.8125 25.2C35.2459 25.2 37.5796 26.1667 39.3002 27.8873C41.0209 29.6079 41.9875 31.9416 41.9875 34.375C41.9875 36.1896 41.4494 37.9635 40.4412 39.4724C39.4331 40.9812 38.0001 42.1572 36.3236 42.8516C34.6471 43.546 32.8023 43.7277 31.0226 43.3737C29.2428 43.0197 27.6079 42.1459 26.3248 40.8627C25.0417 39.5796 24.1678 37.9447 23.8138 36.165C23.4598 34.3852 23.6415 32.5404 24.3359 30.8639C25.0303 29.1874 26.2063 27.7544 27.7151 26.7463Z" fill="#00324F" stroke="#00324F" stroke-width="0.4"/>
<path d="M35.2969 39.0625L31.25 35.0156V28.125H34.375V33.7344L37.5 36.8594L35.2969 39.0625Z" fill="#00324F"/>
<path d="M40.625 6H34.625V3.125V2.875H34.375H31.25H31V3.125V6H19V3.125V2.875H18.75H15.625H15.375V3.125V6H9.375C8.47989 6 7.62145 6.35558 6.98851 6.98851C6.35558 7.62145 6 8.47989 6 9.375V40.625C6 41.5201 6.35558 42.3786 6.98851 43.0115C7.62145 43.6444 8.47989 44 9.375 44H15.625H15.875V43.75V40.625V40.375H15.625H9.625V9.625H15.375V12.5V12.75H15.625H18.75H19V12.5V9.625H31V12.5V12.75H31.25H34.375H34.625V12.5V9.625H40.375V18.75V19H40.625H43.75H44V18.75V9.375C44 8.47989 43.6444 7.62145 43.0115 6.98851C42.3786 6.35558 41.5201 6 40.625 6Z" fill="#00324F" stroke="#00324F" stroke-width="0.5"/>
</svg>
