<svg width="44" height="46" viewBox="0 0 44 46" fill="none" xmlns="http://www.w3.org/2000/svg">
<path d="M33.8749 14.7501L34.8394 13.7835C35.6075 13.0152 36.6492 12.5834 37.7356 12.5833C38.8219 12.5831 39.8639 13.0144 40.6322 13.7824C41.4005 14.5505 41.8322 15.5922 41.8324 16.6786C41.8326 17.7649 41.4012 18.8068 40.6332 19.5751L39.6686 20.5418M33.8749 14.7501C33.8749 14.7501 33.9957 16.8001 35.8061 18.6106C37.6165 20.421 39.6686 20.5418 39.6686 20.5418M33.8749 14.7501L24.9999 23.6251C24.3957 24.2251 24.0957 24.5272 23.8374 24.8585C23.5332 25.2501 23.2728 25.671 23.0582 26.121C22.8769 26.5001 22.7436 26.9022 22.4749 27.7085L21.6144 30.2918L21.3353 31.1272M39.6686 20.5418L30.7936 29.4168C30.1894 30.021 29.8894 30.321 29.5582 30.5793C29.1665 30.8835 28.7457 31.1439 28.2957 31.3585C27.9165 31.5397 27.5144 31.6731 26.7082 31.9418L24.1249 32.8022L23.2894 33.0814M21.3353 31.1272L21.0582 31.9647C20.9937 32.1591 20.9845 32.3676 21.0316 32.567C21.0788 32.7663 21.1805 32.9486 21.3254 33.0934C21.4702 33.2382 21.6525 33.3399 21.8518 33.3871C22.0511 33.4343 22.2596 33.4251 22.454 33.3606L23.2894 33.0814M21.3353 31.1272L23.2894 33.0814" stroke="#00324F" stroke-width="4"/>
<path d="M12.6667 25.0834H17.875M12.6667 16.7501H26.2083M12.6667 33.4168H15.7917M37.3083 4.60841C34.8687 2.16675 30.9396 2.16675 23.0833 2.16675H18.9167C11.0604 2.16675 7.13125 2.16675 4.69167 4.60841C2.25 7.048 2.25 10.9772 2.25 18.8334V27.1667C2.25 35.023 2.25 38.9522 4.69167 41.3917C7.13125 43.8334 11.0604 43.8334 18.9167 43.8334H23.0833C30.9396 43.8334 34.8687 43.8334 37.3083 41.3917C39.275 39.4272 39.6562 36.5001 39.7312 31.3334" stroke="#00324F" stroke-width="4" stroke-linecap="round"/>
</svg>
