<svg width="80" height="60" viewBox="0 0 80 60" fill="none" xmlns="http://www.w3.org/2000/svg">
<g clip-path="url(#clip0_40_1293)">
<path d="M32 0H80V60H32V0Z" fill="#FF0000"/>
<path d="M0 0H32V60H0V0Z" fill="#006600"/>
<path fill-rule="evenodd" clip-rule="evenodd" d="M42.4375 38.2749C38.4 38.1499 19.9375 26.6249 19.8125 24.7749L20.825 23.0874C22.6625 25.7499 41.5375 36.9624 43.4 36.5624L42.4375 38.2749Z" fill="#FFFF00" stroke="black" stroke-width="0.075" stroke-linecap="round" stroke-linejoin="round"/>
<path fill-rule="evenodd" clip-rule="evenodd" d="M20.6124 22.8501C20.2499 23.8251 25.4374 27.0251 31.6624 30.8251C37.8999 34.6126 43.2749 36.9501 43.6624 36.6251L43.8499 36.2751C43.7749 36.4001 43.5999 36.4376 43.3124 36.3501C41.6249 35.8626 37.2374 33.8501 31.7999 30.5501C26.3499 27.2501 21.6249 24.2126 20.8874 22.9251C20.8299 22.8044 20.8041 22.671 20.8124 22.5376H20.7874L20.6374 22.8126L20.6124 22.8501ZM42.5249 38.3251C42.4624 38.4501 42.3249 38.4501 42.0874 38.4251C40.5874 38.2626 36.0124 36.0376 30.5999 32.8001C24.2999 29.0251 19.0999 25.6001 19.6749 24.7001L19.8249 24.4251L19.8499 24.4376C19.3499 25.9626 30.1124 32.1126 30.7499 32.5126C36.9749 36.3626 42.2249 38.6251 42.6874 38.0376L42.5249 38.3251Z" fill="#FFFF00" stroke="black" stroke-width="0.075" stroke-linecap="round" stroke-linejoin="round"/>
<path fill-rule="evenodd" clip-rule="evenodd" d="M32.0251 25.9C36.0501 25.8625 41.0251 25.35 43.9001 24.2L43.2751 23.2C41.5876 24.1375 36.5876 24.7625 31.9876 24.85C26.5626 24.8 22.7251 24.2875 20.8001 23L20.2251 24.075C23.7501 25.575 27.3751 25.8875 32.0251 25.9Z" fill="#FFFF00" stroke="black" stroke-width="0.075" stroke-linecap="round" stroke-linejoin="round"/>
<path fill-rule="evenodd" clip-rule="evenodd" d="M44.0624 24.2252C43.9624 24.3877 42.0874 25.0252 39.3374 25.5002C36.9132 25.8676 34.4643 26.0473 32.0124 26.0377C29.6633 26.0465 27.3162 25.8962 24.9874 25.5877C22.0999 25.1377 20.6124 24.5127 20.0499 24.2877L20.1874 24.0127C21.7749 24.6377 23.2749 25.0127 25.0249 25.2877C27.3367 25.5998 29.6671 25.7544 31.9999 25.7502C34.4391 25.7528 36.875 25.5731 39.2874 25.2127C42.0999 24.7502 43.6374 24.1627 43.8624 23.9002L44.0624 24.2377V24.2252ZM43.5124 23.2127C43.2124 23.4627 41.6874 24.0002 39.0124 24.4252C36.7025 24.7594 34.3714 24.9265 32.0374 24.9252C29.2874 24.9252 27.0249 24.7252 25.3124 24.4752C22.5874 24.1252 21.1374 23.4752 20.6124 23.3002L20.7749 23.0252C21.1874 23.2377 22.5749 23.8002 25.3374 24.1877C27.5581 24.4852 29.7969 24.6272 32.0374 24.6127C34.3548 24.6134 36.6692 24.4463 38.9624 24.1127C41.6499 23.7377 43.0999 23.0627 43.3249 22.8877L43.5124 23.2127ZM18.7874 30.7502C21.2624 32.0877 26.7749 32.7502 31.9874 32.8002C36.7374 32.8127 42.9124 32.0752 45.2249 30.8502L45.1624 29.5127C44.4374 30.6377 37.8124 31.7252 31.9374 31.6877C26.0624 31.6377 20.5999 30.7377 18.7749 29.5627V30.7502" fill="#FFFF00"/>
<path d="M18.7874 30.7502C21.2624 32.0877 26.7749 32.7502 31.9874 32.8002C36.7374 32.8127 42.9124 32.0752 45.2249 30.8502L45.1624 29.5127C44.4374 30.6377 37.8124 31.7252 31.9374 31.6877C26.0624 31.6377 20.5999 30.7377 18.7749 29.5627V30.7502M44.0624 24.2252C43.9624 24.3877 42.0874 25.0252 39.3374 25.5002C36.9132 25.8676 34.4643 26.0473 32.0124 26.0377C29.6633 26.0465 27.3162 25.8962 24.9874 25.5877C22.0999 25.1377 20.6124 24.5127 20.0499 24.2877L20.1874 24.0127C21.7749 24.6377 23.2749 25.0127 25.0249 25.2877C27.3367 25.5998 29.6671 25.7544 31.9999 25.7502C34.4391 25.7528 36.875 25.5731 39.2874 25.2127C42.0999 24.7502 43.6374 24.1627 43.8624 23.9002L44.0624 24.2377V24.2252ZM43.5124 23.2127C43.2124 23.4627 41.6874 24.0002 39.0124 24.4252C36.7025 24.7594 34.3714 24.9265 32.0374 24.9252C29.2874 24.9252 27.0249 24.7252 25.3124 24.4752C22.5874 24.1252 21.1374 23.4752 20.6124 23.3002L20.7749 23.0252C21.1874 23.2377 22.5749 23.8002 25.3374 24.1877C27.5581 24.4852 29.7969 24.6272 32.0374 24.6127C34.3548 24.6134 36.6692 24.4463 38.9624 24.1127C41.6499 23.7377 43.0999 23.0627 43.3249 22.8877L43.5124 23.2127Z" stroke="black" stroke-width="0.075" stroke-linecap="round" stroke-linejoin="round"/>
<path fill-rule="evenodd" clip-rule="evenodd" d="M45.35 30.5627V30.8752C45 31.3002 42.825 31.9252 40.1 32.3752C37.3928 32.7643 34.66 32.9482 31.925 32.9252C29.3316 32.9473 26.7405 32.7676 24.175 32.3877C22.2607 32.1665 20.3901 31.6609 18.625 30.8877V30.5252C19.8375 31.3252 23.1125 31.9252 24.2125 32.1002C26.1875 32.4002 28.725 32.6252 31.925 32.6252C35.2875 32.6252 37.975 32.3877 40.05 32.0752C42.0125 31.7877 44.8 31.0502 45.35 30.5627ZM45.35 29.4377V29.7502C45 30.1627 42.825 30.7877 40.1 31.2377C37.3931 31.631 34.6603 31.8191 31.925 31.8002C29.3318 31.8155 26.7412 31.6358 24.175 31.2627C22.2607 31.0415 20.3901 30.5359 18.625 29.7627V29.3877C19.8375 30.2002 23.125 30.7877 24.2125 30.9627C26.766 31.3367 29.3443 31.5164 31.925 31.5002C35.2875 31.5002 37.9875 31.2502 40.05 30.9377C42.0125 30.6627 44.8 29.9252 45.35 29.4377ZM31.975 38.0377C26.275 38.0127 21.3875 36.4877 20.35 36.2377L21.1 37.4127C24.6061 38.6545 28.3059 39.2598 32.025 39.2002C36.3625 39.0752 40.15 38.7377 42.8125 37.4377L43.5875 36.2127C41.775 37.0752 35.5875 38.0377 31.9625 38.0377" fill="#FFFF00"/>
<path d="M31.975 38.0377C26.275 38.0127 21.3875 36.4877 20.35 36.2377L21.1 37.4127C24.6061 38.6545 28.3059 39.2598 32.025 39.2002C36.3625 39.0752 40.15 38.7377 42.8125 37.4377L43.5875 36.2127C41.775 37.0752 35.5875 38.0377 31.9625 38.0377M45.35 30.5627V30.8752C45 31.3002 42.825 31.9252 40.1 32.3752C37.3928 32.7643 34.66 32.9482 31.925 32.9252C29.3316 32.9473 26.7405 32.7676 24.175 32.3877C22.2607 32.1665 20.3901 31.6609 18.625 30.8877V30.5252C19.8375 31.3252 23.1125 31.9252 24.2125 32.1002C26.1875 32.4002 28.725 32.6252 31.925 32.6252C35.2875 32.6252 37.975 32.3877 40.05 32.0752C42.0125 31.7877 44.8 31.0502 45.35 30.5627ZM45.35 29.4377V29.7502C45 30.1627 42.825 30.7877 40.1 31.2377C37.3931 31.631 34.6603 31.8191 31.925 31.8002C29.3318 31.8155 26.7412 31.6358 24.175 31.2627C22.2607 31.0415 20.3901 30.5359 18.625 29.7627V29.3877C19.8375 30.2002 23.125 30.7877 24.2125 30.9627C26.766 31.3367 29.3443 31.5164 31.925 31.5002C35.2875 31.5002 37.9875 31.2502 40.05 30.9377C42.0125 30.6627 44.8 29.9252 45.35 29.4377Z" stroke="black" stroke-width="0.075" stroke-linecap="round" stroke-linejoin="round"/>
<path fill-rule="evenodd" clip-rule="evenodd" d="M43.1125 37.1628C42.9987 37.3314 42.882 37.4981 42.7625 37.6628C41.5125 38.1128 39.5125 38.5878 38.6875 38.7128C36.4737 39.1253 34.2269 39.3345 31.975 39.3378C26.925 39.2628 22.7875 38.2753 20.85 37.4253L20.6875 37.1628L20.7125 37.1128L20.975 37.2253C24.5325 38.4025 28.2528 39.0142 32 39.0378C34.35 39.0378 36.6875 38.7753 38.575 38.4378C41.475 37.8503 42.65 37.4128 43.0125 37.2128L43.1 37.1628H43.1125ZM43.775 36.0628C43.6927 36.2092 43.6094 36.355 43.525 36.5003C42.85 36.7503 41.025 37.2753 38.3625 37.6503C36.6125 37.8878 35.525 38.1253 32.0375 38.1878C28.0508 38.1478 24.0886 37.5589 20.2625 36.4378L20.125 36.1253C24.0123 37.1997 28.0179 37.7875 32.05 37.8753C35.2375 37.8128 36.6 37.5753 38.3375 37.3378C41.4375 36.8628 43 36.3378 43.4625 36.2003C43.4628 36.192 43.4628 36.1836 43.4625 36.1753L43.7875 36.0503L43.775 36.0628Z" fill="#FFFF00" stroke="black" stroke-width="0.075" stroke-linecap="round" stroke-linejoin="round"/>
<path fill-rule="evenodd" clip-rule="evenodd" d="M43.8499 29.7C43.8624 33.45 41.9374 36.825 40.3999 38.3C38.1291 40.5147 35.0966 41.7761 31.9249 41.825C28.1374 41.8875 24.5749 39.425 23.6124 38.3375C21.4592 36.0541 20.2337 33.0505 20.1749 29.9125C20.3999 25.8125 22.0124 22.9625 24.3374 21C26.596 19.1407 29.4371 18.1361 32.3624 18.1625C34.0701 18.2453 35.7416 18.6839 37.2699 19.4502C38.7982 20.2165 40.1496 21.2936 41.2374 22.6125C42.7999 24.5125 43.4874 26.575 43.8499 29.7ZM31.9499 16.875C35.4468 16.8749 38.8019 18.2571 41.2839 20.7204C43.7659 23.1837 45.1735 26.5282 45.1999 30.025C45.1999 31.7601 44.8582 33.4782 44.1942 35.0812C43.5302 36.6842 42.557 38.1408 41.3301 39.3676C40.1032 40.5945 38.6466 41.5678 37.0436 42.2318C35.4406 42.8957 33.7225 43.2375 31.9874 43.2375C30.2523 43.2375 28.5342 42.8957 26.9312 42.2318C25.3282 41.5678 23.8717 40.5945 22.6448 39.3676C21.4179 38.1408 20.4447 36.6842 19.7807 35.0812C19.1167 33.4782 18.7749 31.7601 18.7749 30.025C18.7624 22.775 24.6874 16.875 31.9499 16.875Z" fill="#FFFF00" stroke="black" stroke-width="0.075" stroke-linecap="round" stroke-linejoin="round"/>
<path fill-rule="evenodd" clip-rule="evenodd" d="M31.9873 16.8125C39.2623 16.8125 45.1873 22.7375 45.1873 30.0125C45.1873 37.2875 39.2623 43.2125 31.9998 43.2125C24.7373 43.2125 18.7998 37.2875 18.7998 30.0125C18.7998 22.7375 24.7248 16.8125 31.9998 16.8125H31.9873ZM19.0748 30C19.0748 37.1 24.9123 42.9125 31.9873 42.9125C39.0623 42.9125 44.8998 37.1 44.8998 30C44.8998 22.9 39.0623 17.0875 31.9873 17.0875C24.9123 17.0875 19.0748 22.9 19.0748 30Z" fill="#FFFF00" stroke="black" stroke-width="0.075" stroke-linecap="round" stroke-linejoin="round"/>
<path fill-rule="evenodd" clip-rule="evenodd" d="M32.0001 17.9126C35.2029 17.9225 38.2716 19.1992 40.5363 21.4639C42.801 23.7286 44.0777 26.7973 44.0876 30.0001C44.0777 33.204 42.8014 36.2741 40.5371 38.5408C38.2727 40.8075 35.204 42.0869 32.0001 42.1001C25.3751 42.1001 19.9126 36.6501 19.9126 30.0001C19.9258 26.7983 21.2035 23.7315 23.4675 21.4675C25.7315 19.2035 28.7983 17.9258 32.0001 17.9126ZM20.2001 30.0001C20.2001 36.5001 25.5251 41.8001 32.0001 41.8001C38.4751 41.8001 43.8001 36.4876 43.8001 30.0001C43.8001 23.5001 38.4751 18.2001 32.0001 18.2001C28.8746 18.2133 25.8809 19.4607 23.6708 21.6708C21.4607 23.8809 20.2133 26.8746 20.2001 30.0001Z" fill="#FFFF00" stroke="black" stroke-width="0.075" stroke-linecap="round" stroke-linejoin="round"/>
<path fill-rule="evenodd" clip-rule="evenodd" d="M32.5374 16.75H31.3999V43.2875H32.5249L32.5374 16.75Z" fill="#FFFF00" stroke="black" stroke-width="0.075" stroke-linecap="round" stroke-linejoin="round"/>
<path fill-rule="evenodd" clip-rule="evenodd" d="M32.4126 16.6001H32.7001V43.4376H32.4251V16.6001H32.4126ZM31.2876 16.6001H31.5876V43.4376H31.3001V16.6001H31.2876Z" fill="#FFFF00" stroke="black" stroke-width="0.075" stroke-linecap="round" stroke-linejoin="round"/>
<path fill-rule="evenodd" clip-rule="evenodd" d="M45.1998 30.525V29.55L44.3998 28.8L39.8623 27.6L33.3373 26.9375L25.4623 27.3375L19.8623 28.6625L18.7373 29.5V30.4875L21.5998 29.2L28.3998 28.1375H34.9373L39.7373 28.6625L43.0623 29.4625L45.1998 30.525Z" fill="#FFFF00" stroke="black" stroke-width="0.075" stroke-linecap="round" stroke-linejoin="round"/>
<path fill-rule="evenodd" clip-rule="evenodd" d="M32 27.9752C35.1125 27.9752 38.125 28.2627 40.5375 28.7252C43.0125 29.2252 44.75 29.8502 45.35 30.5377V30.8877C44.625 30.0127 42.2875 29.3877 40.475 29.0127C38.1 28.5627 35.1 28.2627 31.9875 28.2627C28.725 28.2627 25.675 28.5877 23.325 29.0377C21.45 29.4127 18.9375 30.1627 18.625 30.8877V30.5251C18.7875 30.0251 20.6625 29.2751 23.2875 28.7376C25.65 28.2751 28.7 27.9752 31.9875 27.9752H32ZM32 26.8376C34.8625 26.8319 37.7198 27.0829 40.5375 27.5876C43.0125 28.0876 44.75 28.7127 45.35 29.4127V29.7501C44.625 28.8876 42.2875 28.2502 40.475 27.8877C38.1 27.4252 35.1 27.1377 31.9875 27.1377C29.0864 27.1285 26.1907 27.3879 23.3375 27.9127C21.525 28.2502 18.9125 29.0251 18.625 29.7501V29.4001C18.8 28.9001 20.7 28.1126 23.2875 27.6126C25.6625 27.1501 28.7 26.8376 32 26.8376ZM31.925 21.0626C36.8375 21.0376 41.125 21.7501 43.0875 22.7501L43.8 24.0001C42.1 23.0751 37.475 22.1251 31.9375 22.2501C27.425 22.2876 22.6 22.7501 20.1875 24.0501L21.0375 22.6251C23.025 21.5876 27.7 21.0626 31.925 21.0626Z" fill="#FFFF00" stroke="black" stroke-width="0.075" stroke-linecap="round" stroke-linejoin="round"/>
<path fill-rule="evenodd" clip-rule="evenodd" d="M32.0001 22.0874C34.565 22.0441 37.1288 22.224 39.6626 22.6249C41.6626 22.9999 43.5751 23.5499 43.8501 23.8499L44.0626 24.2249C43.4001 23.7999 41.7376 23.3124 39.6126 22.9124C37.4876 22.5124 34.7751 22.3749 31.9876 22.3874C28.8251 22.3749 26.3626 22.5374 24.2626 22.9124C22.815 23.1153 21.4095 23.55 20.1001 24.1999L20.3126 23.8124C21.0626 23.4374 22.2251 22.9749 24.2001 22.6124C26.3876 22.2124 28.8751 22.0999 32.0001 22.0874ZM32.0001 20.9624C34.6751 20.9374 37.3251 21.0874 39.3876 21.4624C40.7239 21.6608 42.017 22.0834 43.2126 22.7124L43.5251 23.2124C43.0001 22.6249 41.0251 22.0624 39.2626 21.7624C37.2126 21.3999 34.6751 21.2624 32.0001 21.2374C29.51 21.2152 27.0223 21.3992 24.5626 21.7874C23.2764 21.9666 22.0273 22.3507 20.8626 22.9249L21.1376 22.5124C21.8626 22.1374 23.0376 21.7874 24.5126 21.4999C26.9886 21.1066 29.4932 20.9226 32.0001 20.9499V20.9624ZM38.5501 35.4999C36.3835 35.1248 34.186 34.9574 31.9876 34.9999C23.8001 35.0999 21.1626 36.6874 20.8376 37.1624L20.2126 36.1624C22.3126 34.6624 26.7626 33.8124 32.0376 33.8874C34.7751 33.9374 37.1376 34.1249 39.1126 34.5124L38.5501 35.5124" fill="#FFFF00"/>
<path d="M38.5501 35.4999C36.3835 35.1248 34.186 34.9574 31.9876 34.9999C23.8001 35.0999 21.1626 36.6874 20.8376 37.1624L20.2126 36.1624C22.3126 34.6624 26.7626 33.8124 32.0376 33.8874C34.7751 33.9374 37.1376 34.1249 39.1126 34.5124L38.5501 35.5124M32.0001 22.0874C34.565 22.0441 37.1288 22.224 39.6626 22.6249C41.6626 22.9999 43.5751 23.5499 43.8501 23.8499L44.0626 24.2249C43.4001 23.7999 41.7376 23.3124 39.6126 22.9124C37.4876 22.5124 34.7751 22.3749 31.9876 22.3874C28.8251 22.3749 26.3626 22.5374 24.2626 22.9124C22.815 23.1153 21.4095 23.55 20.1001 24.1999L20.3126 23.8124C21.0626 23.4374 22.2251 22.9749 24.2001 22.6124C26.3876 22.2124 28.8751 22.0999 32.0001 22.0874ZM32.0001 20.9624C34.6751 20.9374 37.3251 21.0874 39.3876 21.4624C40.7239 21.6608 42.017 22.0834 43.2126 22.7124L43.5251 23.2124C43.0001 22.6249 41.0251 22.0624 39.2626 21.7624C37.2126 21.3999 34.6751 21.2624 32.0001 21.2374C29.51 21.2152 27.0223 21.3992 24.5626 21.7874C23.2764 21.9666 22.0273 22.3507 20.8626 22.9249L21.1376 22.5124C21.8626 22.1374 23.0376 21.7874 24.5126 21.4999C26.9886 21.1066 29.4932 20.9226 32.0001 20.9499V20.9624Z" stroke="black" stroke-width="0.075" stroke-linecap="round" stroke-linejoin="round"/>
<path fill-rule="evenodd" clip-rule="evenodd" d="M31.9498 34.8624C34.2248 34.8999 36.4498 34.9874 38.6123 35.3874L38.4623 35.6624C36.4623 35.2874 34.3123 35.1624 31.9623 35.1624C28.9248 35.1374 25.8748 35.4249 23.2123 36.1874C22.3748 36.4249 20.9873 36.9624 20.8373 37.4124L20.6873 37.1624C20.7373 36.8874 21.5623 36.3374 23.1373 35.9124C26.1873 35.0374 29.0373 34.8749 31.9498 34.8624ZM32.0498 33.7124C34.451 33.71 36.8478 33.9191 39.2123 34.3374L39.0498 34.6249C36.7409 34.2014 34.3972 33.9963 32.0498 34.0124C29.0248 34.0124 25.8123 34.2374 22.8873 35.0874C21.9498 35.3624 20.3123 35.9624 20.2623 36.4249L20.1123 36.1499C20.1373 35.7249 21.5498 35.1624 22.8248 34.7999C25.7623 33.9374 28.9873 33.7249 32.0498 33.7124Z" fill="#FFFF00" stroke="black" stroke-width="0.075" stroke-linecap="round" stroke-linejoin="round"/>
<path fill-rule="evenodd" clip-rule="evenodd" d="M43.6751 36.3126L42.7001 37.8501L39.8626 35.3376L32.5376 30.4001L24.2626 25.8626L19.9751 24.4001L20.8876 22.7001L21.2001 22.5376L23.8626 23.2001L32.6626 27.7376L37.7376 30.9376L42.0001 34.0001L43.7376 36.0001L43.6751 36.3126Z" fill="#FFFF00" stroke="black" stroke-width="0.075" stroke-linecap="round" stroke-linejoin="round"/>
<path fill-rule="evenodd" clip-rule="evenodd" d="M19.8251 24.4377C20.5751 23.9377 26.1001 26.3877 31.9001 29.8877C37.6626 33.3877 43.1876 37.3377 42.6876 38.0752L42.5251 38.3377L42.4501 38.4002C42.4626 38.3877 42.5501 38.2752 42.4501 38.0127C42.2001 37.2002 38.2751 34.0752 31.7876 30.1502C25.4501 26.3877 20.1751 24.1127 19.6626 24.7627L19.8251 24.4377ZM43.8751 36.3002C44.3501 35.3502 39.2251 31.4877 32.8626 27.7252C26.3626 24.0377 21.6626 21.8627 20.8001 22.5127L20.6251 22.8752C20.6251 22.8877 20.6251 22.8502 20.6751 22.8127C20.8251 22.6877 21.0876 22.6877 21.2001 22.6877C22.6751 22.7127 26.8876 24.6502 32.8001 28.0377C35.4001 29.5377 43.7501 34.9127 43.7126 36.4127C43.7126 36.5377 43.7251 36.5627 43.6751 36.6377L43.8876 36.3127L43.8751 36.3002Z" fill="#FFFF00" stroke="black" stroke-width="0.075" stroke-linecap="round" stroke-linejoin="round"/>
<path d="M24.0801 31.4708C24.0821 32.5058 24.2893 33.5302 24.6898 34.4846C25.0903 35.4389 25.6762 36.3044 26.4134 37.0308C27.1417 37.7703 28.0091 38.3584 28.9656 38.7611C29.9221 39.1639 30.9489 39.3734 31.9868 39.3775C34.0872 39.3774 36.1016 38.5428 37.5868 37.0575C38.3214 36.3271 38.9046 35.4587 39.3027 34.5022C39.7008 33.5458 39.9061 32.5202 39.9068 31.4842V20.9241L24.0801 20.8975V31.4708Z" fill="white" stroke="black" stroke-width="0.0933336"/>
<path d="M24.3735 31.4842C24.3764 32.477 24.5757 33.4595 24.9602 34.3749C25.3447 35.2902 25.9066 36.1204 26.6135 36.8175C28.0331 38.2445 29.9608 39.0501 31.9736 39.0575C33.9828 39.0586 35.9105 38.2626 37.3336 36.8442C38.0381 36.146 38.5976 35.3153 38.9797 34.4C39.3619 33.4846 39.5592 32.5027 39.5602 31.5108V21.2441H24.4002V31.4842M36.5336 24.3241V30.8442L36.5202 31.5242C36.5247 32.1198 36.409 32.7103 36.1799 33.2601C35.9507 33.81 35.613 34.3079 35.1869 34.7242C34.339 35.575 33.1881 36.0546 31.9869 36.0575C30.7336 36.0575 29.6269 35.5242 28.8002 34.6975C27.9494 33.8496 27.4698 32.6987 27.4669 31.4975V24.2975L36.5336 24.3241Z" fill="#FF0000"/>
<path d="M24.3735 31.4842C24.3764 32.477 24.5757 33.4595 24.9602 34.3749C25.3447 35.2902 25.9066 36.1204 26.6135 36.8175C28.0331 38.2445 29.9608 39.0501 31.9736 39.0575C33.9828 39.0586 35.9105 38.2626 37.3336 36.8442C38.0381 36.146 38.5976 35.3153 38.9797 34.4C39.3619 33.4846 39.5592 32.5027 39.5602 31.5108V21.2441H24.4002V31.4842M36.5336 24.3241V30.8442L36.5202 31.5242C36.5247 32.1198 36.409 32.7103 36.1799 33.2601C35.9507 33.81 35.613 34.3079 35.1869 34.7242C34.339 35.575 33.1881 36.0546 31.9869 36.0575C30.7336 36.0575 29.6269 35.5242 28.8002 34.6975C27.9494 33.8496 27.4698 32.6987 27.4669 31.4975V24.2975L36.5336 24.3241Z" stroke="black" stroke-width="0.0666669"/>
<path d="M25.3599 23.9242C25.3732 23.1909 25.8932 23.0176 25.8932 23.0176C25.9065 23.0176 26.4665 23.2042 26.4665 23.9376H25.3599" fill="#FFFF00"/>
<path d="M24.9067 23.0309L24.8134 23.8709H25.3734C25.3734 23.1776 25.9067 23.0709 25.9067 23.0709C25.92 23.0709 26.44 23.2176 26.4534 23.8709H27.0134L26.9067 23.0176H24.9067V23.0309ZM24.7734 23.8842H27.04C27.08 23.8842 27.12 23.9242 27.12 23.9776C27.12 24.0442 27.08 24.0842 27.04 24.0842H24.7734C24.7334 24.0842 24.6934 24.0442 24.6934 23.9776C24.6934 23.9242 24.7334 23.8842 24.7867 23.8842H24.7734Z" fill="#FFFF00" stroke="black" stroke-width="0.0666669"/>
<path d="M25.5999 23.871C25.5999 23.431 25.9066 23.311 25.9066 23.311C25.9066 23.311 26.2133 23.4443 26.2133 23.871H25.5999ZM24.8266 22.671H26.9999C27.0399 22.671 27.0799 22.7243 27.0799 22.7777C27.0799 22.8177 27.0399 22.8577 26.9999 22.8577H24.8266C24.7866 22.8577 24.7466 22.8177 24.7466 22.7643C24.7466 22.7243 24.7866 22.6843 24.8266 22.6843V22.671ZM24.8799 22.871H26.9333C26.9733 22.871 27.0133 22.911 27.0133 22.9643C27.0133 23.0177 26.9733 23.0577 26.9333 23.0577H24.8666C24.8132 23.0577 24.7866 23.0177 24.7866 22.9643C24.7866 22.911 24.8132 22.871 24.8666 22.871H24.8799ZM25.5466 21.4577H25.7066V21.5643H25.8266V21.4577H25.9999V21.5777H26.1199V21.4443H26.2799V21.711C26.2799 21.7643 26.2533 21.791 26.2133 21.791H25.6266C25.5866 21.791 25.5466 21.7643 25.5466 21.7243V21.4577ZM26.1599 21.8177L26.1999 22.671H25.6266L25.6666 21.8043H26.1599" fill="#FFFF00"/>
<path d="M26.1599 21.8177L26.1999 22.671H25.6266L25.6666 21.8043H26.1599M25.5999 23.871C25.5999 23.431 25.9066 23.311 25.9066 23.311C25.9066 23.311 26.2133 23.4443 26.2133 23.871H25.5999ZM24.8266 22.671H26.9999C27.0399 22.671 27.0799 22.7243 27.0799 22.7777C27.0799 22.8177 27.0399 22.8577 26.9999 22.8577H24.8266C24.7866 22.8577 24.7466 22.8177 24.7466 22.7643C24.7466 22.7243 24.7866 22.6843 24.8266 22.6843V22.671ZM24.8799 22.871H26.9333C26.9733 22.871 27.0133 22.911 27.0133 22.9643C27.0133 23.0177 26.9733 23.0577 26.9333 23.0577H24.8666C24.8132 23.0577 24.7866 23.0177 24.7866 22.9643C24.7866 22.911 24.8132 22.871 24.8666 22.871H24.8799ZM25.5466 21.4577H25.7066V21.5643H25.8266V21.4577H25.9999V21.5777H26.1199V21.4443H26.2799V21.711C26.2799 21.7643 26.2533 21.791 26.2133 21.791H25.6266C25.5866 21.791 25.5466 21.7643 25.5466 21.7243V21.4577Z" stroke="black" stroke-width="0.0666669"/>
<path d="M25.4669 22.2178V22.6711H24.9336V22.2178H25.4669Z" fill="#FFFF00" stroke="black" stroke-width="0.0666669"/>
<path d="M26.88 22.2178V22.6711H26.3467V22.2178H26.88Z" fill="#FFFF00" stroke="black" stroke-width="0.0666669"/>
<path d="M24.8398 21.8711H24.9998V22.0044H25.1198V21.8711H25.2798V22.0044H25.3998V21.8711H25.5598V22.1378C25.5598 22.1911 25.5332 22.2178 25.4932 22.2178H24.9198C24.8986 22.2178 24.8783 22.2093 24.8633 22.1943C24.8483 22.1793 24.8398 22.159 24.8398 22.1378V21.8711Z" fill="#FFFF00" stroke="black" stroke-width="0.0666669"/>
<path d="M26.2534 21.8711H26.4134V22.0044H26.5334V21.8711H26.6934V22.0044H26.8134V21.8711H26.9734V22.1378C26.9734 22.1911 26.9468 22.2178 26.9068 22.2178H26.3334C26.3122 22.2178 26.2919 22.2093 26.2768 22.1943C26.2618 22.1793 26.2534 22.159 26.2534 22.1378V21.8711Z" fill="#FFFF00" stroke="black" stroke-width="0.0666669"/>
<path d="M25.8535 22.0844C25.8535 22.0044 25.9735 22.0044 25.9735 22.0844V22.2977H25.8535V22.0844Z" fill="black"/>
<path d="M25.1465 22.3779C25.1465 22.2979 25.2531 22.2979 25.2531 22.3779V22.5379H25.1465V22.3779Z" fill="black"/>
<path d="M26.5601 22.3779C26.5601 22.2979 26.6667 22.2979 26.6667 22.3779V22.5379H26.5601V22.3779Z" fill="black"/>
<path d="M25.3599 30.0976C25.3732 29.3643 25.8932 29.1909 25.8932 29.1909C25.9065 29.1909 26.4665 29.3776 26.4665 30.1109H25.3599" fill="#FFFF00"/>
<path d="M24.9067 29.2043L24.8134 30.0443H25.3734C25.3734 29.3509 25.9067 29.2443 25.9067 29.2443C25.92 29.2443 26.44 29.3909 26.4534 30.0443H27.0134L26.9067 29.1909H24.9067V29.2043ZM24.7734 30.0576H27.04C27.08 30.0576 27.12 30.0976 27.12 30.1509C27.12 30.2176 27.08 30.2576 27.04 30.2576H24.7734C24.7334 30.2576 24.6934 30.2176 24.6934 30.1509C24.6934 30.0976 24.7334 30.0576 24.7867 30.0576H24.7734Z" fill="#FFFF00" stroke="black" stroke-width="0.0666669"/>
<path d="M25.5999 30.0443C25.5999 29.6043 25.9066 29.4843 25.9066 29.4843C25.9066 29.4843 26.2133 29.6177 26.2133 30.0443H25.5999ZM24.8266 28.8443H26.9999C27.0399 28.8443 27.0799 28.8977 27.0799 28.951C27.0799 28.991 27.0399 29.031 26.9999 29.031H24.8266C24.7866 29.031 24.7466 28.991 24.7466 28.9377C24.7466 28.8977 24.7866 28.8577 24.8266 28.8577V28.8443ZM24.8799 29.0443H26.9333C26.9733 29.0443 27.0133 29.0843 27.0133 29.1377C27.0133 29.191 26.9733 29.231 26.9333 29.231H24.8666C24.8132 29.231 24.7866 29.191 24.7866 29.1377C24.7866 29.0843 24.8132 29.0443 24.8666 29.0443H24.8799ZM25.5466 27.631H25.7066V27.7377H25.8266V27.631H25.9999V27.751H26.1199V27.6177H26.2799V27.8843C26.2799 27.9377 26.2533 27.9643 26.2133 27.9643H25.6266C25.5866 27.9643 25.5466 27.9377 25.5466 27.8977V27.631ZM26.1599 27.991L26.1999 28.8443H25.6266L25.6666 27.9777H26.1599" fill="#FFFF00"/>
<path d="M26.1599 27.991L26.1999 28.8443H25.6266L25.6666 27.9777H26.1599M25.5999 30.0443C25.5999 29.6043 25.9066 29.4843 25.9066 29.4843C25.9066 29.4843 26.2133 29.6177 26.2133 30.0443H25.5999ZM24.8266 28.8443H26.9999C27.0399 28.8443 27.0799 28.8977 27.0799 28.951C27.0799 28.991 27.0399 29.031 26.9999 29.031H24.8266C24.7866 29.031 24.7466 28.991 24.7466 28.9377C24.7466 28.8977 24.7866 28.8577 24.8266 28.8577V28.8443ZM24.8799 29.0443H26.9333C26.9733 29.0443 27.0133 29.0843 27.0133 29.1377C27.0133 29.191 26.9733 29.231 26.9333 29.231H24.8666C24.8132 29.231 24.7866 29.191 24.7866 29.1377C24.7866 29.0843 24.8132 29.0443 24.8666 29.0443H24.8799ZM25.5466 27.631H25.7066V27.7377H25.8266V27.631H25.9999V27.751H26.1199V27.6177H26.2799V27.8843C26.2799 27.9377 26.2533 27.9643 26.2133 27.9643H25.6266C25.5866 27.9643 25.5466 27.9377 25.5466 27.8977V27.631Z" stroke="black" stroke-width="0.0666669"/>
<path d="M25.4669 28.3911V28.8444H24.9336V28.3911H25.4669Z" fill="#FFFF00" stroke="black" stroke-width="0.0666669"/>
<path d="M26.88 28.3911V28.8444H26.3467V28.3911H26.88Z" fill="#FFFF00" stroke="black" stroke-width="0.0666669"/>
<path d="M24.8398 28.0444H24.9998V28.1778H25.1198V28.0444H25.2798V28.1778H25.3998V28.0444H25.5598V28.3111C25.5598 28.3644 25.5332 28.3911 25.4932 28.3911H24.9198C24.8986 28.3911 24.8783 28.3827 24.8633 28.3677C24.8483 28.3527 24.8398 28.3323 24.8398 28.3111V28.0444Z" fill="#FFFF00" stroke="black" stroke-width="0.0666669"/>
<path d="M26.2534 28.0444H26.4134V28.1778H26.5334V28.0444H26.6934V28.1778H26.8134V28.0444H26.9734V28.3111C26.9734 28.3644 26.9468 28.3911 26.9068 28.3911H26.3334C26.3122 28.3911 26.2919 28.3827 26.2768 28.3677C26.2618 28.3527 26.2534 28.3323 26.2534 28.3111V28.0444Z" fill="#FFFF00" stroke="black" stroke-width="0.0666669"/>
<path d="M25.8535 28.2578C25.8535 28.1778 25.9735 28.1778 25.9735 28.2578V28.4711H25.8535V28.2578Z" fill="black"/>
<path d="M25.1465 28.5512C25.1465 28.4712 25.2531 28.4712 25.2531 28.5512V28.7112H25.1465V28.5512Z" fill="black"/>
<path d="M26.5601 28.5512C26.5601 28.4712 26.6667 28.4712 26.6667 28.5512V28.7112H26.5601V28.5512Z" fill="black"/>
<path d="M27.7659 36.5319C27.2549 36.0057 27.4984 35.5146 27.4984 35.5146C27.5078 35.5052 28.0348 35.2393 28.5552 35.7561L27.7754 36.5413" fill="#FFFF00"/>
<path d="M26.8126 36.2237L27.3429 36.8819L27.7375 36.4845C27.2455 35.996 27.5456 35.5424 27.5456 35.5424C27.555 35.5329 28.0255 35.2673 28.4985 35.7182L28.8931 35.3208L28.2124 34.7952L26.8032 36.2143L26.8126 36.2237ZM27.3242 36.9196L28.9213 35.3113C28.9495 35.2829 29.0061 35.2827 29.0439 35.3203C29.0912 35.3673 29.0914 35.4238 29.0633 35.4522L27.4661 37.0606C27.4379 37.089 27.3813 37.0891 27.334 37.0422C27.2962 37.0046 27.296 36.948 27.3336 36.9102L27.3242 36.9196Z" fill="#FFFF00" stroke="black" stroke-width="0.0666669"/>
<path d="M27.8974 36.3237C27.5852 36.0136 27.7161 35.7115 27.7161 35.7115C27.7161 35.7115 28.0268 35.5878 28.3296 35.8884L27.8974 36.3237ZM26.501 36.0268L28.0324 34.4847C28.0606 34.4563 28.1266 34.4655 28.1645 34.5031C28.1929 34.5313 28.193 34.5878 28.1649 34.6162L26.6335 36.1584C26.6053 36.1867 26.5487 36.1869 26.5109 36.1494C26.4825 36.1212 26.4823 36.0646 26.5105 36.0362L26.501 36.0268ZM26.6805 36.1299L28.1273 34.6729C28.1555 34.6445 28.2121 34.6443 28.2499 34.6819C28.2878 34.7195 28.288 34.7761 28.2598 34.8045L26.8036 36.2709C26.766 36.3087 26.7188 36.2995 26.681 36.2619C26.6431 36.2243 26.6335 36.1772 26.6711 36.1394L26.6805 36.1299ZM26.1474 34.661L26.2601 34.5474L26.3358 34.6226L26.4204 34.5375L26.3447 34.4623L26.4668 34.3393L26.552 34.4239L26.6365 34.3387L26.5419 34.2448L26.6547 34.1312L26.8439 34.3191C26.8817 34.3567 26.8819 34.3944 26.8537 34.4228L26.4403 34.8391C26.4121 34.8675 26.365 34.8771 26.3366 34.8489L26.1474 34.661ZM26.835 34.4794L27.4687 35.0523L27.0647 35.4592L26.4779 34.8201L26.8256 34.47" fill="#FFFF00"/>
<path d="M26.835 34.4794L27.4687 35.0523L27.0647 35.4592L26.4779 34.8201L26.8256 34.47M27.8974 36.3237C27.5852 36.0136 27.7161 35.7115 27.7161 35.7115C27.7161 35.7115 28.0268 35.5878 28.3296 35.8884L27.8974 36.3237ZM26.501 36.0268L28.0324 34.4847C28.0606 34.4563 28.1266 34.4655 28.1645 34.5031C28.1929 34.5313 28.193 34.5878 28.1649 34.6162L26.6335 36.1584C26.6053 36.1867 26.5487 36.1869 26.5109 36.1494C26.4825 36.1212 26.4823 36.0646 26.5105 36.0362L26.501 36.0268ZM26.6805 36.1299L28.1273 34.6729C28.1555 34.6445 28.2121 34.6443 28.2499 34.6819C28.2878 34.7195 28.288 34.7761 28.2598 34.8045L26.8036 36.2709C26.766 36.3087 26.7188 36.2995 26.681 36.2619C26.6431 36.2243 26.6335 36.1772 26.6711 36.1394L26.6805 36.1299ZM26.1474 34.661L26.2601 34.5474L26.3358 34.6226L26.4204 34.5375L26.3447 34.4623L26.4668 34.3393L26.552 34.4239L26.6365 34.3387L26.5419 34.2448L26.6547 34.1312L26.8439 34.3191C26.8817 34.3567 26.8819 34.3944 26.8537 34.4228L26.4403 34.8391C26.4121 34.8675 26.365 34.8771 26.3366 34.8489L26.1474 34.661Z" stroke="black" stroke-width="0.0666669"/>
<path d="M26.6302 35.2534L26.9519 35.5728L26.5761 35.9513L26.2544 35.6318L26.6302 35.2534Z" fill="#FFFF00" stroke="black" stroke-width="0.0666669"/>
<path d="M27.6263 34.2505L27.948 34.5699L27.5722 34.9483L27.2505 34.6289L27.6263 34.2505Z" fill="#FFFF00" stroke="black" stroke-width="0.0666669"/>
<path d="M25.9429 35.4541L26.0556 35.3406L26.1502 35.4345L26.2348 35.3494L26.1402 35.2554L26.2529 35.1419L26.3475 35.2358L26.4321 35.1507L26.3375 35.0567L26.4502 34.9432L26.6394 35.1311C26.6773 35.1687 26.6774 35.2064 26.6492 35.2348L26.2452 35.6416C26.2303 35.6567 26.21 35.6652 26.1887 35.6652C26.1675 35.6653 26.1471 35.657 26.1321 35.642L25.9429 35.4541Z" fill="#FFFF00" stroke="black" stroke-width="0.0666669"/>
<path d="M26.9385 34.4512L27.0512 34.3376L27.1458 34.4316L27.2304 34.3464L27.1358 34.2525L27.2485 34.139L27.3431 34.2329L27.4277 34.1478L27.3331 34.0538L27.4458 33.9403L27.635 34.1282C27.6729 34.1658 27.673 34.2035 27.6448 34.2319L27.2408 34.6387C27.2259 34.6537 27.2056 34.6622 27.1843 34.6623C27.1631 34.6624 27.1428 34.654 27.1277 34.6391L26.9385 34.4512Z" fill="#FFFF00" stroke="black" stroke-width="0.0666669"/>
<path d="M26.8082 34.8851C26.7514 34.8287 26.836 34.7435 26.8928 34.7999L27.0441 34.9502L26.9596 35.0354L26.8082 34.8851Z" fill="black"/>
<path d="M26.5182 35.5935C26.4614 35.5372 26.5366 35.4615 26.5933 35.5179L26.7069 35.6306L26.6317 35.7063L26.5182 35.5935Z" fill="black"/>
<path d="M27.5143 34.5906C27.4575 34.5342 27.5326 34.4586 27.5894 34.5149L27.7029 34.6277L27.6278 34.7034L27.5143 34.5906Z" fill="black"/>
<path d="M31.4531 23.9242C31.4665 23.1909 31.9865 23.0176 31.9865 23.0176C31.9998 23.0176 32.5598 23.2042 32.5598 23.9376H31.4531" fill="#FFFF00"/>
<path d="M31 23.0309L30.9066 23.8709H31.4666C31.4666 23.1776 32 23.0709 32 23.0709C32.0133 23.0709 32.5333 23.2176 32.5466 23.8709H33.1066L33 23.0176H31V23.0309ZM30.8666 23.8842H33.1333C33.1733 23.8842 33.2133 23.9242 33.2133 23.9776C33.2133 24.0442 33.1733 24.0842 33.1333 24.0842H30.8666C30.8266 24.0842 30.7866 24.0442 30.7866 23.9776C30.7866 23.9242 30.8266 23.8842 30.88 23.8842H30.8666Z" fill="#FFFF00" stroke="black" stroke-width="0.0666669"/>
<path d="M31.6932 23.871C31.6932 23.431 31.9998 23.311 31.9998 23.311C31.9998 23.311 32.3065 23.4443 32.3065 23.871H31.6932ZM30.9198 22.671H33.0932C33.1332 22.671 33.1732 22.7243 33.1732 22.7777C33.1732 22.8177 33.1332 22.8577 33.0932 22.8577H30.9198C30.8798 22.8577 30.8398 22.8177 30.8398 22.7643C30.8398 22.7243 30.8798 22.6843 30.9198 22.6843V22.671ZM30.9732 22.871H33.0265C33.0665 22.871 33.1065 22.911 33.1065 22.9643C33.1065 23.0177 33.0665 23.0577 33.0265 23.0577H30.9598C30.9065 23.0577 30.8798 23.0177 30.8798 22.9643C30.8798 22.911 30.9065 22.871 30.9598 22.871H30.9732ZM31.6398 21.4577H31.7998V21.5643H31.9198V21.4577H32.0932V21.5777H32.2132V21.4443H32.3732V21.711C32.3732 21.7643 32.3465 21.791 32.3065 21.791H31.7198C31.6798 21.791 31.6398 21.7643 31.6398 21.7243V21.4577ZM32.2532 21.8177L32.2932 22.671H31.7198L31.7598 21.8043H32.2532" fill="#FFFF00"/>
<path d="M32.2532 21.8177L32.2932 22.671H31.7198L31.7598 21.8043H32.2532M31.6932 23.871C31.6932 23.431 31.9998 23.311 31.9998 23.311C31.9998 23.311 32.3065 23.4443 32.3065 23.871H31.6932ZM30.9198 22.671H33.0932C33.1332 22.671 33.1732 22.7243 33.1732 22.7777C33.1732 22.8177 33.1332 22.8577 33.0932 22.8577H30.9198C30.8798 22.8577 30.8398 22.8177 30.8398 22.7643C30.8398 22.7243 30.8798 22.6843 30.9198 22.6843V22.671ZM30.9732 22.871H33.0265C33.0665 22.871 33.1065 22.911 33.1065 22.9643C33.1065 23.0177 33.0665 23.0577 33.0265 23.0577H30.9598C30.9065 23.0577 30.8798 23.0177 30.8798 22.9643C30.8798 22.911 30.9065 22.871 30.9598 22.871H30.9732ZM31.6398 21.4577H31.7998V21.5643H31.9198V21.4577H32.0932V21.5777H32.2132V21.4443H32.3732V21.711C32.3732 21.7643 32.3465 21.791 32.3065 21.791H31.7198C31.6798 21.791 31.6398 21.7643 31.6398 21.7243V21.4577Z" stroke="black" stroke-width="0.0666669"/>
<path d="M31.5602 22.2178V22.6711H31.0269V22.2178H31.5602Z" fill="#FFFF00" stroke="black" stroke-width="0.0666669"/>
<path d="M32.9733 22.2178V22.6711H32.4399V22.2178H32.9733Z" fill="#FFFF00" stroke="black" stroke-width="0.0666669"/>
<path d="M30.9331 21.8711H31.0931V22.0044H31.2131V21.8711H31.3731V22.0044H31.4931V21.8711H31.6531V22.1378C31.6531 22.1911 31.6264 22.2178 31.5864 22.2178H31.0131C30.9919 22.2178 30.9715 22.2093 30.9565 22.1943C30.9415 22.1793 30.9331 22.159 30.9331 22.1378V21.8711Z" fill="#FFFF00" stroke="black" stroke-width="0.0666669"/>
<path d="M32.3467 21.8711H32.5067V22.0044H32.6267V21.8711H32.7867V22.0044H32.9067V21.8711H33.0667V22.1378C33.0667 22.1911 33.04 22.2178 33 22.2178H32.4267C32.4055 22.2178 32.3851 22.2093 32.3701 22.1943C32.3551 22.1793 32.3467 22.159 32.3467 22.1378V21.8711Z" fill="#FFFF00" stroke="black" stroke-width="0.0666669"/>
<path d="M31.9468 22.0844C31.9468 22.0044 32.0668 22.0044 32.0668 22.0844V22.2977H31.9468V22.0844Z" fill="black"/>
<path d="M31.2397 22.3779C31.2397 22.2979 31.3464 22.2979 31.3464 22.3779V22.5379H31.2397V22.3779Z" fill="black"/>
<path d="M32.6533 22.3779C32.6533 22.2979 32.76 22.2979 32.76 22.3779V22.5379H32.6533V22.3779Z" fill="black"/>
<path d="M38.6138 23.9242C38.6004 23.1909 38.0804 23.0176 38.0804 23.0176C38.0671 23.0176 37.5071 23.2042 37.5071 23.9376H38.6138" fill="#FFFF00"/>
<path d="M39.0669 23.0309L39.1603 23.8709H38.6003C38.6003 23.1776 38.0669 23.0709 38.0669 23.0709C38.0536 23.0709 37.5336 23.2176 37.5203 23.8709H36.9603L37.0669 23.0176H39.0669V23.0309ZM39.2003 23.8842H36.9336C36.8936 23.8842 36.8536 23.9242 36.8536 23.9776C36.8536 24.0442 36.8936 24.0842 36.9336 24.0842H39.2003C39.2403 24.0842 39.2803 24.0442 39.2803 23.9776C39.2803 23.9242 39.2403 23.8842 39.1869 23.8842H39.2003Z" fill="#FFFF00" stroke="black" stroke-width="0.0666669"/>
<path d="M38.3737 23.871C38.3737 23.431 38.067 23.311 38.067 23.311C38.067 23.311 37.7604 23.4443 37.7604 23.871H38.3737ZM39.1471 22.671H36.9737C36.9337 22.671 36.8937 22.7243 36.8937 22.7777C36.8937 22.8177 36.9337 22.8577 36.9737 22.8577H39.1471C39.1871 22.8577 39.2271 22.8177 39.2271 22.7643C39.2271 22.7243 39.1871 22.6843 39.1471 22.6843V22.671ZM39.0937 22.871H37.0404C37.0004 22.871 36.9604 22.911 36.9604 22.9643C36.9604 23.0177 37.0004 23.0577 37.0404 23.0577H39.1071C39.1604 23.0577 39.1871 23.0177 39.1871 22.9643C39.1871 22.911 39.1604 22.871 39.1071 22.871H39.0937ZM38.427 21.4577H38.267V21.5643H38.147V21.4577H37.9737V21.5777H37.8537V21.4443H37.6937V21.711C37.6937 21.7643 37.7204 21.791 37.7604 21.791H38.347C38.387 21.791 38.427 21.7643 38.427 21.7243V21.4577ZM37.8137 21.8177L37.7737 22.671H38.347L38.307 21.8043H37.8137" fill="#FFFF00"/>
<path d="M37.8137 21.8177L37.7737 22.671H38.347L38.307 21.8043H37.8137M38.3737 23.871C38.3737 23.431 38.067 23.311 38.067 23.311C38.067 23.311 37.7604 23.4443 37.7604 23.871H38.3737ZM39.1471 22.671H36.9737C36.9337 22.671 36.8937 22.7243 36.8937 22.7777C36.8937 22.8177 36.9337 22.8577 36.9737 22.8577H39.1471C39.1871 22.8577 39.2271 22.8177 39.2271 22.7643C39.2271 22.7243 39.1871 22.6843 39.1471 22.6843V22.671ZM39.0937 22.871H37.0404C37.0004 22.871 36.9604 22.911 36.9604 22.9643C36.9604 23.0177 37.0004 23.0577 37.0404 23.0577H39.1071C39.1604 23.0577 39.1871 23.0177 39.1871 22.9643C39.1871 22.911 39.1604 22.871 39.1071 22.871H39.0937ZM38.427 21.4577H38.267V21.5643H38.147V21.4577H37.9737V21.5777H37.8537V21.4443H37.6937V21.711C37.6937 21.7643 37.7204 21.791 37.7604 21.791H38.347C38.387 21.791 38.427 21.7643 38.427 21.7243V21.4577Z" stroke="black" stroke-width="0.0666669"/>
<path d="M38.5072 22.2178V22.6711H39.0405V22.2178H38.5072Z" fill="#FFFF00" stroke="black" stroke-width="0.0666669"/>
<path d="M37.0936 22.2178V22.6711H37.627V22.2178H37.0936Z" fill="#FFFF00" stroke="black" stroke-width="0.0666669"/>
<path d="M39.1338 21.8711H38.9738V22.0044H38.8538V21.8711H38.6938V22.0044H38.5738V21.8711H38.4138V22.1378C38.4138 22.1911 38.4405 22.2178 38.4805 22.2178H39.0538C39.075 22.2178 39.0954 22.2093 39.1104 22.1943C39.1254 22.1793 39.1338 22.159 39.1338 22.1378V21.8711Z" fill="#FFFF00" stroke="black" stroke-width="0.0666669"/>
<path d="M37.7202 21.8711H37.5602V22.0044H37.4402V21.8711H37.2802V22.0044H37.1602V21.8711H37.0002V22.1378C37.0002 22.1911 37.0269 22.2178 37.0669 22.2178H37.6402C37.6614 22.2178 37.6818 22.2093 37.6968 22.1943C37.7118 22.1793 37.7202 22.159 37.7202 22.1378V21.8711Z" fill="#FFFF00" stroke="black" stroke-width="0.0666669"/>
<path d="M38.1201 22.0844C38.1201 22.0044 38.0001 22.0044 38.0001 22.0844V22.2977H38.1201V22.0844Z" fill="black"/>
<path d="M38.8271 22.3779C38.8271 22.2979 38.7205 22.2979 38.7205 22.3779V22.5379H38.8271V22.3779Z" fill="black"/>
<path d="M37.4136 22.3779C37.4136 22.2979 37.3069 22.2979 37.3069 22.3779V22.5379H37.4136V22.3779Z" fill="black"/>
<path d="M38.6138 30.0976C38.6004 29.3643 38.0804 29.1909 38.0804 29.1909C38.0671 29.1909 37.5071 29.3776 37.5071 30.1109H38.6138" fill="#FFFF00"/>
<path d="M39.0669 29.2043L39.1603 30.0443H38.6003C38.6003 29.3509 38.0669 29.2443 38.0669 29.2443C38.0536 29.2443 37.5336 29.3909 37.5203 30.0443H36.9603L37.0669 29.1909H39.0669V29.2043ZM39.2003 30.0576H36.9336C36.8936 30.0576 36.8536 30.0976 36.8536 30.1509C36.8536 30.2176 36.8936 30.2576 36.9336 30.2576H39.2003C39.2403 30.2576 39.2803 30.2176 39.2803 30.1509C39.2803 30.0976 39.2403 30.0576 39.1869 30.0576H39.2003Z" fill="#FFFF00" stroke="black" stroke-width="0.0666669"/>
<path d="M38.3737 30.0443C38.3737 29.6043 38.067 29.4843 38.067 29.4843C38.067 29.4843 37.7604 29.6177 37.7604 30.0443H38.3737ZM39.1471 28.8443H36.9737C36.9337 28.8443 36.8937 28.8977 36.8937 28.951C36.8937 28.991 36.9337 29.031 36.9737 29.031H39.1471C39.1871 29.031 39.2271 28.991 39.2271 28.9377C39.2271 28.8977 39.1871 28.8577 39.1471 28.8577V28.8443ZM39.0937 29.0443H37.0404C37.0004 29.0443 36.9604 29.0843 36.9604 29.1377C36.9604 29.191 37.0004 29.231 37.0404 29.231H39.1071C39.1604 29.231 39.1871 29.191 39.1871 29.1377C39.1871 29.0843 39.1604 29.0443 39.1071 29.0443H39.0937ZM38.427 27.631H38.267V27.7377H38.147V27.631H37.9737V27.751H37.8537V27.6177H37.6937V27.8843C37.6937 27.9377 37.7204 27.9643 37.7604 27.9643H38.347C38.387 27.9643 38.427 27.9377 38.427 27.8977V27.631ZM37.8137 27.991L37.7737 28.8443H38.347L38.307 27.9777H37.8137" fill="#FFFF00"/>
<path d="M37.8137 27.991L37.7737 28.8443H38.347L38.307 27.9777H37.8137M38.3737 30.0443C38.3737 29.6043 38.067 29.4843 38.067 29.4843C38.067 29.4843 37.7604 29.6177 37.7604 30.0443H38.3737ZM39.1471 28.8443H36.9737C36.9337 28.8443 36.8937 28.8977 36.8937 28.951C36.8937 28.991 36.9337 29.031 36.9737 29.031H39.1471C39.1871 29.031 39.2271 28.991 39.2271 28.9377C39.2271 28.8977 39.1871 28.8577 39.1471 28.8577V28.8443ZM39.0937 29.0443H37.0404C37.0004 29.0443 36.9604 29.0843 36.9604 29.1377C36.9604 29.191 37.0004 29.231 37.0404 29.231H39.1071C39.1604 29.231 39.1871 29.191 39.1871 29.1377C39.1871 29.0843 39.1604 29.0443 39.1071 29.0443H39.0937ZM38.427 27.631H38.267V27.7377H38.147V27.631H37.9737V27.751H37.8537V27.6177H37.6937V27.8843C37.6937 27.9377 37.7204 27.9643 37.7604 27.9643H38.347C38.387 27.9643 38.427 27.9377 38.427 27.8977V27.631Z" stroke="black" stroke-width="0.0666669"/>
<path d="M38.5067 28.3911V28.8444H39.04V28.3911H38.5067Z" fill="#FFFF00" stroke="black" stroke-width="0.0666669"/>
<path d="M37.0936 28.3911V28.8444H37.627V28.3911H37.0936Z" fill="#FFFF00" stroke="black" stroke-width="0.0666669"/>
<path d="M39.1338 28.0444H38.9738V28.1778H38.8538V28.0444H38.6938V28.1778H38.5738V28.0444H38.4138V28.3111C38.4138 28.3644 38.4405 28.3911 38.4805 28.3911H39.0538C39.075 28.3911 39.0954 28.3827 39.1104 28.3677C39.1254 28.3527 39.1338 28.3323 39.1338 28.3111V28.0444Z" fill="#FFFF00" stroke="black" stroke-width="0.0666669"/>
<path d="M37.7202 28.0444H37.5602V28.1778H37.4402V28.0444H37.2802V28.1778H37.1602V28.0444H37.0002V28.3111C37.0002 28.3644 37.0269 28.3911 37.0669 28.3911H37.6402C37.6614 28.3911 37.6818 28.3827 37.6968 28.3677C37.7118 28.3527 37.7202 28.3323 37.7202 28.3111V28.0444Z" fill="#FFFF00" stroke="black" stroke-width="0.0666669"/>
<path d="M38.1201 28.2578C38.1201 28.1778 38.0001 28.1778 38.0001 28.2578V28.4711H38.1201V28.2578Z" fill="black"/>
<path d="M38.8271 28.5512C38.8271 28.4712 38.7205 28.4712 38.7205 28.5512V28.7112H38.8271V28.5512Z" fill="black"/>
<path d="M37.4136 28.5512C37.4136 28.4712 37.3069 28.4712 37.3069 28.5512V28.7112H37.4136V28.5512Z" fill="black"/>
<path d="M36.2077 36.5319C36.7187 36.0057 36.4753 35.5146 36.4753 35.5146C36.4659 35.5052 35.9388 35.2393 35.4185 35.7561L36.1983 36.5413" fill="#FFFF00"/>
<path d="M37.161 36.2237L36.6307 36.8819L36.2361 36.4845C36.7281 35.996 36.428 35.5424 36.428 35.5424C36.4186 35.5329 35.9481 35.2673 35.4751 35.7182L35.0805 35.3208L35.7612 34.7952L37.1705 36.2143L37.161 36.2237ZM36.6495 36.9196L35.0523 35.3113C35.0241 35.2829 34.9675 35.2827 34.9297 35.3203C34.8824 35.3673 34.8822 35.4238 34.9104 35.4522L36.5076 37.0606C36.5357 37.089 36.5923 37.0891 36.6396 37.0422C36.6775 37.0046 36.6777 36.948 36.6401 36.9102L36.6495 36.9196Z" fill="#FFFF00" stroke="black" stroke-width="0.0666669"/>
<path d="M36.0762 36.3237C36.3884 36.0136 36.2575 35.7115 36.2575 35.7115C36.2575 35.7115 35.9468 35.5878 35.6441 35.8884L36.0762 36.3237ZM37.4726 36.0268L35.9412 34.4847C35.913 34.4563 35.847 34.4655 35.8092 34.5031C35.7808 34.5313 35.7806 34.5878 35.8088 34.6162L37.3402 36.1584C37.3684 36.1867 37.4249 36.1869 37.4628 36.1494C37.4912 36.1212 37.4914 36.0646 37.4632 36.0362L37.4726 36.0268ZM37.2931 36.1299L35.8463 34.6729C35.8181 34.6445 35.7615 34.6443 35.7237 34.6819C35.6858 34.7195 35.6856 34.7761 35.7138 34.8045L37.1701 36.2709C37.2077 36.3087 37.2548 36.2995 37.2927 36.2619C37.3305 36.2243 37.3401 36.1772 37.3025 36.1394L37.2931 36.1299ZM37.8262 34.661L37.7135 34.5474L37.6378 34.6226L37.5533 34.5375L37.6289 34.4623L37.5068 34.3393L37.4217 34.4239L37.3371 34.3387L37.4317 34.2448L37.319 34.1312L37.1298 34.3191C37.0919 34.3567 37.0918 34.3944 37.12 34.4228L37.5334 34.8391C37.5615 34.8675 37.6086 34.8771 37.637 34.8489L37.8262 34.661ZM37.1386 34.4794L36.5049 35.0523L36.9089 35.4592L37.4957 34.8201L37.1481 34.47" fill="#FFFF00"/>
<path d="M37.1386 34.4794L36.5049 35.0523L36.9089 35.4592L37.4957 34.8201L37.1481 34.47M36.0762 36.3237C36.3884 36.0136 36.2575 35.7115 36.2575 35.7115C36.2575 35.7115 35.9468 35.5878 35.6441 35.8884L36.0762 36.3237ZM37.4726 36.0268L35.9412 34.4847C35.913 34.4563 35.847 34.4655 35.8092 34.5031C35.7808 34.5313 35.7806 34.5878 35.8088 34.6162L37.3402 36.1584C37.3684 36.1867 37.4249 36.1869 37.4628 36.1494C37.4912 36.1212 37.4914 36.0646 37.4632 36.0362L37.4726 36.0268ZM37.2931 36.1299L35.8463 34.6729C35.8181 34.6445 35.7615 34.6443 35.7237 34.6819C35.6858 34.7195 35.6856 34.7761 35.7138 34.8045L37.1701 36.2709C37.2077 36.3087 37.2548 36.2995 37.2927 36.2619C37.3305 36.2243 37.3401 36.1772 37.3025 36.1394L37.2931 36.1299ZM37.8262 34.661L37.7135 34.5474L37.6378 34.6226L37.5533 34.5375L37.6289 34.4623L37.5068 34.3393L37.4217 34.4239L37.3371 34.3387L37.4317 34.2448L37.319 34.1312L37.1298 34.3191C37.0919 34.3567 37.0918 34.3944 37.12 34.4228L37.5334 34.8391C37.5615 34.8675 37.6086 34.8771 37.637 34.8489L37.8262 34.661Z" stroke="black" stroke-width="0.0666669"/>
<path d="M37.3434 35.2534L37.0218 35.5728L37.3976 35.9513L37.7192 35.6318L37.3434 35.2534Z" fill="#FFFF00" stroke="black" stroke-width="0.0666669"/>
<path d="M36.3473 34.2505L36.0257 34.5699L36.4015 34.9483L36.7231 34.6289L36.3473 34.2505Z" fill="#FFFF00" stroke="black" stroke-width="0.0666669"/>
<path d="M38.0308 35.4541L37.918 35.3406L37.8234 35.4345L37.7389 35.3494L37.8335 35.2554L37.7207 35.1419L37.6261 35.2358L37.5416 35.1507L37.6362 35.0567L37.5234 34.9432L37.3342 35.1311C37.2964 35.1687 37.2962 35.2064 37.3244 35.2348L37.7284 35.6416C37.7434 35.6567 37.7637 35.6652 37.7849 35.6652C37.8061 35.6653 37.8265 35.657 37.8415 35.642L38.0308 35.4541Z" fill="#FFFF00" stroke="black" stroke-width="0.0666669"/>
<path d="M37.0352 34.4512L36.9224 34.3376L36.8278 34.4316L36.7432 34.3464L36.8379 34.2525L36.7251 34.139L36.6305 34.2329L36.546 34.1478L36.6406 34.0538L36.5278 33.9403L36.3386 34.1282C36.3008 34.1658 36.3006 34.2035 36.3288 34.2319L36.7328 34.6387C36.7478 34.6537 36.7681 34.6622 36.7893 34.6623C36.8105 34.6624 36.8309 34.654 36.8459 34.6391L37.0352 34.4512Z" fill="#FFFF00" stroke="black" stroke-width="0.0666669"/>
<path d="M37.1654 34.8851C37.2222 34.8287 37.1376 34.7435 37.0809 34.7999L36.9295 34.9502L37.0141 35.0354L37.1654 34.8851Z" fill="black"/>
<path d="M37.4555 35.5935C37.5122 35.5372 37.4371 35.4615 37.3803 35.5179L37.2668 35.6306L37.3419 35.7063L37.4555 35.5935Z" fill="black"/>
<path d="M36.4594 34.5906C36.5161 34.5342 36.441 34.4586 36.3842 34.5149L36.2707 34.6277L36.3458 34.7034L36.4594 34.5906Z" fill="black"/>
<path d="M31.0132 30.3243C31.0108 30.6057 31.1157 30.8775 31.3066 31.0843C31.3956 31.1839 31.5044 31.2637 31.6261 31.3188C31.7478 31.3739 31.8797 31.403 32.0132 31.4043C32.2932 31.4043 32.5466 31.271 32.7199 31.0843C32.9108 30.8775 33.0156 30.6057 33.0132 30.3243V28.8843H31.0132V30.3243Z" fill="#003399"/>
<path d="M31.4798 29.631C31.5902 29.631 31.6798 29.5414 31.6798 29.431C31.6798 29.3205 31.5902 29.231 31.4798 29.231C31.3693 29.231 31.2798 29.3205 31.2798 29.431C31.2798 29.5414 31.3693 29.631 31.4798 29.631Z" fill="white"/>
<path d="M32.5867 29.631C32.6972 29.631 32.7867 29.5414 32.7867 29.431C32.7867 29.3205 32.6972 29.231 32.5867 29.231C32.4763 29.231 32.3867 29.3205 32.3867 29.431C32.3867 29.5414 32.4763 29.631 32.5867 29.631Z" fill="white"/>
<path d="M32.0267 30.1642C32.1371 30.1642 32.2267 30.0746 32.2267 29.9642C32.2267 29.8537 32.1371 29.7642 32.0267 29.7642C31.9162 29.7642 31.8267 29.8537 31.8267 29.9642C31.8267 30.0746 31.9162 30.1642 32.0267 30.1642Z" fill="white"/>
<path d="M31.4798 30.7242C31.5902 30.7242 31.6798 30.6347 31.6798 30.5242C31.6798 30.4138 31.5902 30.3242 31.4798 30.3242C31.3693 30.3242 31.2798 30.4138 31.2798 30.5242C31.2798 30.6347 31.3693 30.7242 31.4798 30.7242Z" fill="white"/>
<path d="M32.5867 30.7242C32.6972 30.7242 32.7867 30.6347 32.7867 30.5242C32.7867 30.4138 32.6972 30.3242 32.5867 30.3242C32.4763 30.3242 32.3867 30.4138 32.3867 30.5242C32.3867 30.6347 32.4763 30.7242 32.5867 30.7242Z" fill="white"/>
<path d="M31.0132 26.8575C31.0108 27.1389 31.1157 27.4107 31.3066 27.6175C31.3956 27.7171 31.5044 27.7969 31.6261 27.852C31.7478 27.9071 31.8797 27.9362 32.0132 27.9375C32.2932 27.9375 32.5466 27.8042 32.7199 27.6175C32.9108 27.4107 33.0156 27.1389 33.0132 26.8575V25.4175H31.0132V26.8575Z" fill="#003399"/>
<path d="M31.4798 26.1642C31.5902 26.1642 31.6798 26.0746 31.6798 25.9642C31.6798 25.8537 31.5902 25.7642 31.4798 25.7642C31.3693 25.7642 31.2798 25.8537 31.2798 25.9642C31.2798 26.0746 31.3693 26.1642 31.4798 26.1642Z" fill="white"/>
<path d="M32.5867 26.1642C32.6972 26.1642 32.7867 26.0746 32.7867 25.9642C32.7867 25.8537 32.6972 25.7642 32.5867 25.7642C32.4763 25.7642 32.3867 25.8537 32.3867 25.9642C32.3867 26.0746 32.4763 26.1642 32.5867 26.1642Z" fill="white"/>
<path d="M32.0267 26.6974C32.1371 26.6974 32.2267 26.6078 32.2267 26.4974C32.2267 26.3869 32.1371 26.2974 32.0267 26.2974C31.9162 26.2974 31.8267 26.3869 31.8267 26.4974C31.8267 26.6078 31.9162 26.6974 32.0267 26.6974Z" fill="white"/>
<path d="M31.4798 27.2574C31.5902 27.2574 31.6798 27.1679 31.6798 27.0574C31.6798 26.947 31.5902 26.8574 31.4798 26.8574C31.3693 26.8574 31.2798 26.947 31.2798 27.0574C31.2798 27.1679 31.3693 27.2574 31.4798 27.2574Z" fill="white"/>
<path d="M32.5867 27.2574C32.6972 27.2574 32.7867 27.1679 32.7867 27.0574C32.7867 26.947 32.6972 26.8574 32.5867 26.8574C32.4763 26.8574 32.3867 26.947 32.3867 27.0574C32.3867 27.1679 32.4763 27.2574 32.5867 27.2574Z" fill="white"/>
<path d="M28.2403 30.3243C28.2379 30.6057 28.3428 30.8775 28.5336 31.0843C28.6227 31.1839 28.7315 31.2637 28.8532 31.3188C28.9749 31.3739 29.1067 31.403 29.2403 31.4043C29.5203 31.4043 29.7736 31.271 29.9469 31.0843C30.1378 30.8775 30.2427 30.6057 30.2403 30.3243V28.8843H28.2403V30.3243Z" fill="#003399"/>
<path d="M28.7068 29.631C28.8173 29.631 28.9068 29.5414 28.9068 29.431C28.9068 29.3205 28.8173 29.231 28.7068 29.231C28.5964 29.231 28.5068 29.3205 28.5068 29.431C28.5068 29.5414 28.5964 29.631 28.7068 29.631Z" fill="white"/>
<path d="M29.8138 29.631C29.9242 29.631 30.0138 29.5414 30.0138 29.431C30.0138 29.3205 29.9242 29.231 29.8138 29.231C29.7033 29.231 29.6138 29.3205 29.6138 29.431C29.6138 29.5414 29.7033 29.631 29.8138 29.631Z" fill="white"/>
<path d="M29.2537 30.1642C29.3642 30.1642 29.4537 30.0746 29.4537 29.9642C29.4537 29.8537 29.3642 29.7642 29.2537 29.7642C29.1433 29.7642 29.0537 29.8537 29.0537 29.9642C29.0537 30.0746 29.1433 30.1642 29.2537 30.1642Z" fill="white"/>
<path d="M28.7068 30.7242C28.8173 30.7242 28.9068 30.6347 28.9068 30.5242C28.9068 30.4138 28.8173 30.3242 28.7068 30.3242C28.5964 30.3242 28.5068 30.4138 28.5068 30.5242C28.5068 30.6347 28.5964 30.7242 28.7068 30.7242Z" fill="white"/>
<path d="M29.8138 30.7242C29.9242 30.7242 30.0138 30.6347 30.0138 30.5242C30.0138 30.4138 29.9242 30.3242 29.8138 30.3242C29.7033 30.3242 29.6138 30.4138 29.6138 30.5242C29.6138 30.6347 29.7033 30.7242 29.8138 30.7242Z" fill="white"/>
<path d="M33.7867 30.3243C33.7842 30.6057 33.8891 30.8775 34.08 31.0843C34.169 31.1839 34.2779 31.2637 34.3996 31.3188C34.5213 31.3739 34.6531 31.403 34.7867 31.4043C35.0667 31.4043 35.32 31.271 35.4933 31.0843C35.6842 30.8775 35.7891 30.6057 35.7867 30.3243V28.8843H33.7867V30.3243Z" fill="#003399"/>
<path d="M34.2532 29.631C34.3637 29.631 34.4532 29.5414 34.4532 29.431C34.4532 29.3205 34.3637 29.231 34.2532 29.231C34.1428 29.231 34.0532 29.3205 34.0532 29.431C34.0532 29.5414 34.1428 29.631 34.2532 29.631Z" fill="white"/>
<path d="M35.3602 29.631C35.4706 29.631 35.5602 29.5414 35.5602 29.431C35.5602 29.3205 35.4706 29.231 35.3602 29.231C35.2497 29.231 35.1602 29.3205 35.1602 29.431C35.1602 29.5414 35.2497 29.631 35.3602 29.631Z" fill="white"/>
<path d="M34.8001 30.1642C34.9106 30.1642 35.0001 30.0746 35.0001 29.9642C35.0001 29.8537 34.9106 29.7642 34.8001 29.7642C34.6896 29.7642 34.6001 29.8537 34.6001 29.9642C34.6001 30.0746 34.6896 30.1642 34.8001 30.1642Z" fill="white"/>
<path d="M34.2532 30.7242C34.3637 30.7242 34.4532 30.6347 34.4532 30.5242C34.4532 30.4138 34.3637 30.3242 34.2532 30.3242C34.1428 30.3242 34.0532 30.4138 34.0532 30.5242C34.0532 30.6347 34.1428 30.7242 34.2532 30.7242Z" fill="white"/>
<path d="M35.3602 30.7242C35.4706 30.7242 35.5602 30.6347 35.5602 30.5242C35.5602 30.4138 35.4706 30.3242 35.3602 30.3242C35.2497 30.3242 35.1602 30.4138 35.1602 30.5242C35.1602 30.6347 35.2497 30.7242 35.3602 30.7242Z" fill="white"/>
<path d="M31.0132 33.7642C31.0108 34.0456 31.1157 34.3174 31.3066 34.5242C31.3956 34.6238 31.5044 34.7037 31.6261 34.7588C31.7478 34.8139 31.8797 34.843 32.0132 34.8442C32.2932 34.8442 32.5466 34.7109 32.7199 34.5242C32.9108 34.3174 33.0156 34.0456 33.0132 33.7642V32.3242H31.0132V33.7642Z" fill="#003399"/>
<path d="M31.4798 33.0709C31.5902 33.0709 31.6798 32.9814 31.6798 32.8709C31.6798 32.7604 31.5902 32.6709 31.4798 32.6709C31.3693 32.6709 31.2798 32.7604 31.2798 32.8709C31.2798 32.9814 31.3693 33.0709 31.4798 33.0709Z" fill="white"/>
<path d="M32.5867 33.0709C32.6972 33.0709 32.7867 32.9814 32.7867 32.8709C32.7867 32.7604 32.6972 32.6709 32.5867 32.6709C32.4763 32.6709 32.3867 32.7604 32.3867 32.8709C32.3867 32.9814 32.4763 33.0709 32.5867 33.0709Z" fill="white"/>
<path d="M32.0267 33.6041C32.1371 33.6041 32.2267 33.5146 32.2267 33.4041C32.2267 33.2936 32.1371 33.2041 32.0267 33.2041C31.9162 33.2041 31.8267 33.2936 31.8267 33.4041C31.8267 33.5146 31.9162 33.6041 32.0267 33.6041Z" fill="white"/>
<path d="M31.4798 34.1642C31.5902 34.1642 31.6798 34.0746 31.6798 33.9642C31.6798 33.8537 31.5902 33.7642 31.4798 33.7642C31.3693 33.7642 31.2798 33.8537 31.2798 33.9642C31.2798 34.0746 31.3693 34.1642 31.4798 34.1642Z" fill="white"/>
<path d="M32.5867 34.1642C32.6972 34.1642 32.7867 34.0746 32.7867 33.9642C32.7867 33.8537 32.6972 33.7642 32.5867 33.7642C32.4763 33.7642 32.3867 33.8537 32.3867 33.9642C32.3867 34.0746 32.4763 34.1642 32.5867 34.1642Z" fill="white"/>
</g>
<defs>
<clipPath id="clip0_40_1293">
<rect width="80" height="60" fill="white"/>
</clipPath>
</defs>
</svg>
