<svg width="33" height="48" viewBox="0 0 33 48" fill="none" xmlns="http://www.w3.org/2000/svg">
<path d="M8.16667 30.5625C7.85725 30.5625 7.5605 30.4242 7.34171 30.1781C7.12292 29.9319 7 29.5981 7 29.25C7 28.9019 7.12292 28.5681 7.34171 28.3219C7.5605 28.0758 7.85725 27.9375 8.16667 27.9375H24.5C24.8094 27.9375 25.1062 28.0758 25.325 28.3219C25.5438 28.5681 25.6667 28.9019 25.6667 29.25C25.6667 29.5981 25.5438 29.9319 25.325 30.1781C25.1062 30.4242 24.8094 30.5625 24.5 30.5625H8.16667ZM8.16667 37.125C7.85725 37.125 7.5605 36.9867 7.34171 36.7406C7.12292 36.4944 7 36.1606 7 35.8125C7 35.4644 7.12292 35.1306 7.34171 34.8844C7.5605 34.6383 7.85725 34.5 8.16667 34.5H24.5C24.8094 34.5 25.1062 34.6383 25.325 34.8844C25.5438 35.1306 25.6667 35.4644 25.6667 35.8125C25.6667 36.1606 25.5438 36.4944 25.325 36.7406C25.1062 36.9867 24.8094 37.125 24.5 37.125H8.16667Z" fill="white"/>
<path fill-rule="evenodd" clip-rule="evenodd" d="M19.0983 0.375H3.5C2.57174 0.375 1.6815 0.789843 1.02513 1.52827C0.368749 2.26669 0 3.26821 0 4.3125V43.6875C0 44.7318 0.368749 45.7333 1.02513 46.4717C1.6815 47.2102 2.57174 47.625 3.5 47.625H29.1667C30.0949 47.625 30.9852 47.2102 31.6415 46.4717C32.2979 45.7333 32.6667 44.7318 32.6667 43.6875V16.6553C32.6664 15.6695 32.3376 14.7197 31.745 13.9935L21.679 1.65075C21.351 1.24846 20.9521 0.927301 20.5079 0.707678C20.0636 0.488055 19.5836 0.374765 19.0983 0.375ZM2.33333 4.3125C2.33333 3.9644 2.45625 3.63056 2.67504 3.38442C2.89383 3.13828 3.19058 3 3.5 3H19.0983C19.2602 2.9998 19.4204 3.03751 19.5686 3.11072C19.7168 3.18393 19.8499 3.29104 19.9593 3.42525L30.0253 15.768C30.2231 16.0099 30.333 16.3265 30.3333 16.6553V43.6875C30.3333 44.0356 30.2104 44.3694 29.9916 44.6156C29.7728 44.8617 29.4761 45 29.1667 45H3.5C3.19058 45 2.89383 44.8617 2.67504 44.6156C2.45625 44.3694 2.33333 44.0356 2.33333 43.6875V4.3125Z" fill="white"/>
<path d="M19.8333 3.26245V15.6H30.7999" stroke="white" stroke-linecap="round" stroke-linejoin="round"/>
<path d="M12.9553 13.661L12.6555 12.9735C12.4454 13.0651 12.2247 13.107 12.0052 13.0994C11.5825 13.0849 11.1605 12.8856 10.8364 12.5097C10.5101 12.1312 10.3159 11.6084 10.3159 11.0494C10.3159 10.4904 10.5101 9.96764 10.8364 9.58915C11.1605 9.21325 11.5825 9.01397 12.0052 8.9994C12.2247 8.99184 12.4454 9.0337 12.6555 9.12531C12.866 9.21708 13.0643 9.35823 13.236 9.54556C13.4079 9.73308 13.5488 9.96234 13.6464 10.2219C13.744 10.4814 13.7952 10.7631 13.7952 11.0494C13.7952 11.3358 13.744 11.6174 13.6464 11.877C13.5488 12.1365 13.4079 12.3657 13.236 12.5533C13.0643 12.7406 12.866 12.8817 12.6555 12.9735L12.9553 13.661Z" stroke="white" stroke-width="1.5"/>
<mask id="path-5-inside-1_22_585" fill="white">
<path fill-rule="evenodd" clip-rule="evenodd" d="M16.954 19.9156C16.954 16.9388 14.7257 14.7837 11.977 14.7837C9.22833 14.7837 7 16.9362 7 19.9156V21.3173C7.00062 21.5647 7.08841 21.8017 7.24412 21.9764C7.39983 22.1511 7.61076 22.2492 7.83067 22.2492H16.1257C16.3452 22.2485 16.5555 22.1501 16.7107 21.9755C16.8659 21.8009 16.9534 21.5643 16.954 21.3173V19.9156Z"/>
</mask>
<path d="M7 21.3173H4.99999L5.00001 21.3223L7 21.3173ZM7.83067 22.2492V20.2492H7.83066L7.83067 22.2492ZM16.1257 22.2492V24.2492L16.132 24.2492L16.1257 22.2492ZM16.954 21.3173L18.954 21.3223V21.3173H16.954ZM18.954 19.9156C18.954 15.8556 15.8514 12.7837 11.977 12.7837V16.7837C13.5999 16.7837 14.954 18.0221 14.954 19.9156H18.954ZM11.977 12.7837C8.10325 12.7837 5 15.8523 5 19.9156H9C9 18.0201 10.3534 16.7837 11.977 16.7837V12.7837ZM5 19.9156V21.3173H9V19.9156H5ZM5.00001 21.3223C5.00177 22.0283 5.25027 22.7453 5.75116 23.3072L8.73708 20.6456C8.92654 20.8581 8.99947 21.1012 8.99999 21.3123L5.00001 21.3223ZM5.75116 23.3072C6.25885 23.8768 7.00039 24.2492 7.83068 24.2492L7.83066 20.2492C8.22114 20.2492 8.54082 20.4254 8.73708 20.6456L5.75116 23.3072ZM7.83067 24.2492H16.1257V20.2492H7.83067V24.2492ZM16.132 24.2492C16.9606 24.2466 17.6997 23.8733 18.2055 23.3042L15.2159 20.6468C15.4113 20.4269 15.7297 20.2504 16.1194 20.2492L16.132 24.2492ZM18.2055 23.3042C18.7046 22.7427 18.9522 22.027 18.954 21.3223L14.954 21.3123C14.9545 21.1015 15.0272 20.859 15.2159 20.6468L18.2055 23.3042ZM18.954 21.3173V19.9156H14.954V21.3173H18.954Z" fill="white" mask="url(#path-5-inside-1_22_585)"/>
</svg>
