<svg width="35" height="35" viewBox="0 0 35 35" fill="none" xmlns="http://www.w3.org/2000/svg">
<path fill-rule="evenodd" clip-rule="evenodd" d="M17.3128 3.99525C13.7807 3.99525 10.3934 5.39835 7.89586 7.89586C5.39835 10.3934 3.99525 13.7807 3.99525 17.3128C3.99525 20.8448 5.39835 24.2322 7.89586 26.7297C10.3934 29.2272 13.7807 30.6303 17.3128 30.6303C20.8448 30.6303 24.2322 29.2272 26.7297 26.7297C29.2272 24.2322 30.6303 20.8448 30.6303 17.3128C30.6303 13.7807 29.2272 10.3934 26.7297 7.89586C24.2322 5.39835 20.8448 3.99525 17.3128 3.99525ZM0 17.3128C0 12.7211 1.82402 8.31757 5.07079 5.07079C8.31757 1.82402 12.7211 0 17.3128 0C21.9044 0 26.308 1.82402 29.5547 5.07079C32.8015 8.31757 34.6255 12.7211 34.6255 17.3128C34.6255 21.9044 32.8015 26.308 29.5547 29.5547C26.308 32.8015 21.9044 34.6255 17.3128 34.6255C12.7211 34.6255 8.31757 32.8015 5.07079 29.5547C1.82402 26.308 0 21.9044 0 17.3128Z" fill="white"/>
</svg>
