<svg width="40" height="43" viewBox="0 0 40 43" fill="none" xmlns="http://www.w3.org/2000/svg">
<path d="M28.4715 28.1628C29.708 27.4985 31.1233 27.1204 32.6306 27.1204H32.6357C32.789 27.1204 32.8606 26.9365 32.7482 26.8343C31.1806 25.4276 29.39 24.2914 27.4496 23.4723C27.4292 23.462 27.4087 23.4569 27.3883 23.4467C30.5613 21.1423 32.6255 17.3971 32.6255 13.1715C32.6255 6.17153 26.9642 0.5 19.9795 0.5C12.9949 0.5 7.33867 6.17153 7.33867 13.1715C7.33867 17.3971 9.4029 21.1423 12.581 23.4467C12.5606 23.4569 12.5401 23.462 12.5197 23.4723C10.2357 24.438 8.18684 25.8226 6.42407 27.5905C4.67147 29.3399 3.27618 31.4138 2.31604 33.6964C1.37136 35.9316 0.861528 38.3264 0.813848 40.7526C0.812485 40.8071 0.82205 40.8613 0.84198 40.9121C0.861911 40.9629 0.891804 41.0092 0.929897 41.0482C0.967991 41.0873 1.01351 41.1183 1.06379 41.1395C1.11406 41.1607 1.16806 41.1716 1.22261 41.1715H4.28319C4.33874 41.1715 4.392 41.1601 4.44066 41.1395C4.58448 41.0785 4.68813 40.9372 4.69195 40.773C4.79414 36.8285 6.37297 33.1343 9.16786 30.3343C12.0547 27.4372 15.8971 25.8431 19.9847 25.8431C22.8817 25.8431 25.6613 26.6453 28.0576 28.1474C28.1192 28.1861 28.1899 28.2079 28.2625 28.2106C28.3352 28.2133 28.4073 28.1968 28.4715 28.1628ZM19.9847 21.9599C17.6445 21.9599 15.4423 21.0453 13.7817 19.3847C12.9647 18.5698 12.317 17.6012 11.8759 16.5349C11.4348 15.4686 11.2091 14.3255 11.2117 13.1715C11.2117 10.8263 12.1263 8.61898 13.7817 6.95839C15.4372 5.29781 17.6394 4.38321 19.9847 4.38321C22.3299 4.38321 24.527 5.29781 26.1876 6.95839C27.0046 7.77331 27.6523 8.74183 28.0934 9.80817C28.5345 10.8745 28.7603 12.0176 28.7576 13.1715C28.7576 15.5168 27.843 17.7241 26.1876 19.3847C24.527 21.0453 22.3248 21.9599 19.9847 21.9599ZM38.7774 34.1204H34.4854V29.8285C34.4854 29.6036 34.3014 29.4197 34.0766 29.4197H31.2153C30.9905 29.4197 30.8066 29.6036 30.8066 29.8285V34.1204H26.5146C26.2898 34.1204 26.1058 34.3044 26.1058 34.5292V37.3905C26.1058 37.6153 26.2898 37.7993 26.5146 37.7993H30.8066V42.0912C30.8066 42.3161 30.9905 42.5 31.2153 42.5H34.0766C34.3014 42.5 34.4854 42.3161 34.4854 42.0912V37.7993H38.7774C39.0022 37.7993 39.1861 37.6153 39.1861 37.3905V34.5292C39.1861 34.3044 39.0022 34.1204 38.7774 34.1204Z" fill="white"/>
</svg>
