<svg width="40" height="43" viewBox="0 0 40 43" fill="none" xmlns="http://www.w3.org/2000/svg">
<path d="M35.625 4H29.625V1.125V0.875H29.375H26.25H26V1.125V4H14V1.125V0.875H13.75H10.625H10.375V1.125V4H4.375C3.47989 4 2.62145 4.35558 1.98851 4.98851C1.35558 5.62145 1 6.47989 1 7.375V38.625C1 39.5201 1.35558 40.3786 1.98851 41.0115C2.62145 41.6444 3.47989 42 4.375 42H10.625H10.875V41.75V38.625V38.375H10.625H4.625V7.625H10.375V10.5V10.75H10.625H13.75H14V10.5V7.625H26V10.5V10.75H26.25H29.375H29.625V10.5V7.625H35.375V16.75V17H35.625H38.75H39V16.75V7.375C39 6.47989 38.6444 5.62145 38.0115 4.98851C37.3786 4.35558 36.5201 4 35.625 4Z" fill="#00324F" stroke="#00324F" stroke-width="0.5"/>
</svg>
