<svg width="48" height="39" viewBox="0 0 48 39" fill="none" xmlns="http://www.w3.org/2000/svg">
<path d="M46.5 8.76413V8.73005L46.4985 8.69601C46.4561 7.76464 46.2848 6.88514 45.9611 6.07602C45.6301 5.24854 45.1359 4.51282 44.4961 3.87303C43.8562 3.23313 43.1171 2.73543 42.286 2.38915C41.4421 2.03753 40.543 1.86914 39.605 1.86914C38.6929 1.86914 37.8091 2.04119 36.9644 2.38366L37.5263 3.76985L36.9644 2.38366C36.1145 2.7282 35.3606 3.22631 34.7139 3.87303L34.7131 3.87384L18.1861 20.4262L13.3131 15.5532C12.6664 14.9065 11.9125 14.4084 11.0626 14.0638C10.2178 13.7213 9.3341 13.5493 8.42197 13.5493H8.3871L8.35227 13.5509C7.43502 13.5936 6.56246 13.7659 5.74727 14.0829C4.89599 14.4139 4.14697 14.9139 3.51176 15.5726C2.9032 16.2037 2.41874 16.9259 2.06088 17.731C1.68236 18.5827 1.5 19.4932 1.5 20.4443V20.463L1.50047 20.4818C1.52295 21.3812 1.70375 22.2518 2.04149 23.0849C2.38604 23.9348 2.88415 24.6887 3.53086 25.3354L13.287 35.0915C13.9326 35.7575 14.6889 36.2691 15.5463 36.6167C16.391 36.9591 17.2748 37.1312 18.1869 37.1312H18.2056L18.2244 37.1307C19.1238 37.1082 19.9944 36.9274 20.8275 36.5897C21.6774 36.2451 22.4313 35.747 23.078 35.1003L23.0787 35.0997L44.4961 13.6552C44.4963 13.655 44.4966 13.6548 44.4968 13.6546C45.1432 13.008 45.6411 12.2544 45.9855 11.4048C46.3279 10.56 46.5 9.67627 46.5 8.76413Z" stroke="white" stroke-width="3"/>
</svg>
