<svg width="40" height="50" viewBox="0 0 40 50" fill="none" xmlns="http://www.w3.org/2000/svg">
<path d="M24.8332 0.833252H5.49984C2.8415 0.833252 0.690671 3.00825 0.690671 5.66659L0.666504 44.3333C0.666504 46.9916 2.81734 49.1666 5.47567 49.1666H34.4998C37.1582 49.1666 39.3332 46.9916 39.3332 44.3333V15.3333L24.8332 0.833252ZM5.49984 5.66659H22.4165L34.4998 17.7499V38.4849L30.0532 34.0383C31.5833 31.7176 32.265 28.9398 31.9832 26.1744C31.7014 23.4091 30.4733 20.8259 28.5065 18.8616C27.3912 17.7417 26.0655 16.8534 24.6055 16.2479C23.1456 15.6423 21.5804 15.3315 19.9998 15.3333C16.8013 15.3339 13.7336 16.6028 11.469 18.8616C10.3488 19.9795 9.46014 21.3073 8.85378 22.769C8.24742 24.2308 7.93531 25.7978 7.93531 27.3803C7.93531 28.9629 8.24742 30.5299 8.85378 31.9916C9.46014 33.4534 10.3488 34.7812 11.469 35.8991C13.4339 37.8662 16.019 39.0926 18.7855 39.3702C21.5519 39.6477 24.3292 38.9592 26.6457 37.4216L33.5332 44.3333H5.49984V5.66659ZM25.099 32.4916C23.7457 33.8449 21.9332 34.6183 19.9998 34.6183C18.0665 34.6183 16.254 33.8691 14.9007 32.4916C13.5473 31.1383 12.774 29.3258 12.774 27.3924C12.774 25.4591 13.5232 23.6466 14.9007 22.2933C16.254 20.9158 18.0665 20.1666 19.9998 20.1666C21.9332 20.1666 23.7457 20.9158 25.099 22.2933C26.4523 23.6466 27.2257 25.4591 27.2257 27.3924C27.2257 29.3258 26.4765 31.1383 25.099 32.4916Z" fill="#00324F"/>
</svg>
